<?xml version="1.0" encoding="UTF-8" standalone="no"?>
<svg
   xmlns:dc="http://purl.org/dc/elements/1.1/"
   xmlns:cc="http://creativecommons.org/ns#"
   xmlns:rdf="http://www.w3.org/1999/02/22-rdf-syntax-ns#"
   xmlns:svg="http://www.w3.org/2000/svg"
   xmlns="http://www.w3.org/2000/svg"
   xmlns:sodipodi="http://sodipodi.sourceforge.net/DTD/sodipodi-0.dtd"
   xmlns:inkscape="http://www.inkscape.org/namespaces/inkscape"
   width="1024"
   height="1300"
   viewBox="0 0 270.93333 343.95834"
   version="1.1"
   id="svg8"
   inkscape:version="1.0.1 (3bc2e813f5, 2020-09-07)"
   sodipodi:docname="interface.svg">
  <defs
     id="defs2">
    <rect
       x="128.49602"
       y="32.484871"
       width="101.85943"
       height="35.779819"
       id="rect858" />
    <rect
       x="24.707203"
       y="29.759493"
       width="50.699047"
       height="45.646767"
       id="rect837" />
    <rect
       x="128.49602"
       y="32.484871"
       width="101.85943"
       height="35.779819"
       id="rect858-7" />
    <rect
       x="128.49602"
       y="32.484871"
       width="101.85943"
       height="35.779819"
       id="rect904" />
    <rect
       x="24.707203"
       y="29.759493"
       width="50.699047"
       height="45.646767"
       id="rect837-3" />
    <rect
       x="24.707203"
       y="29.759493"
       width="50.699047"
       height="45.646767"
       id="rect933" />
    <rect
       x="128.49602"
       y="32.484871"
       width="148.50365"
       height="41.30209"
       id="rect858-5" />
    <rect
       x="128.49602"
       y="32.484871"
       width="101.85943"
       height="35.779819"
       id="rect936" />
    <rect
       x="128.49602"
       y="32.484871"
       width="148.50365"
       height="41.30209"
       id="rect858-5-7" />
    <rect
       x="128.49602"
       y="32.484871"
       width="148.50365"
       height="41.30209"
       id="rect1006" />
    <rect
       x="24.707203"
       y="29.759493"
       width="50.699047"
       height="45.646767"
       id="rect837-3-9" />
    <rect
       x="24.707203"
       y="29.759493"
       width="50.699047"
       height="45.646767"
       id="rect1036" />
    <rect
       x="128.49602"
       y="32.484871"
       width="148.50365"
       height="41.30209"
       id="rect858-5-3" />
    <rect
       x="128.49602"
       y="32.484871"
       width="148.50365"
       height="41.30209"
       id="rect1039" />
    <rect
       x="128.49602"
       y="32.484871"
       width="148.50365"
       height="41.30209"
       id="rect858-5-7-6" />
    <rect
       x="128.49602"
       y="32.484871"
       width="148.50365"
       height="41.30209"
       id="rect1042" />
  </defs>
  <sodipodi:namedview
     id="base"
     pagecolor="#ffffff"
     bordercolor="#666666"
     borderopacity="1.0"
     inkscape:pageopacity="0.0"
     inkscape:pageshadow="2"
     inkscape:zoom="0.49497475"
     inkscape:cx="435.96563"
     inkscape:cy="346.98186"
     inkscape:document-units="px"
     inkscape:current-layer="layer1"
     inkscape:document-rotation="0"
     showgrid="false"
     units="px"
     inkscape:window-width="1362"
     inkscape:window-height="733"
     inkscape:window-x="0"
     inkscape:window-y="16"
     inkscape:window-maximized="1" />
  <metadata
     id="metadata5">
    <rdf:RDF>
      <cc:Work
         rdf:about="">
        <dc:format>image/svg+xml</dc:format>
        <dc:type
           rdf:resource="http://purl.org/dc/dcmitype/StillImage" />
        <dc:title></dc:title>
      </cc:Work>
    </rdf:RDF>
  </metadata>
  <g
     inkscape:label="Layer 1"
     inkscape:groupmode="layer"
     id="layer1">
    <g
       id="g1327">
      <path
         id="rect833"
         style="fill:none;stroke:#000000;stroke-width:2.64583;stroke-miterlimit:4;stroke-dasharray:none;stroke-opacity:1"
         d="M 11.906248,11.906248 H 75.406252 V 75.406256 H 11.906248 Z" />
      <g
         aria-label="Company
Logo"
         transform="translate(-6.3644,0.74487542)"
         id="text835"
         style="font-style:normal;font-weight:normal;font-size:10.5833px;line-height:125%;font-family:sans-serif;letter-spacing:0px;word-spacing:0px;white-space:pre;shape-inside:url(#rect837);fill:#000000;fill-opacity:1;stroke:none;stroke-width:0.264583px;stroke-linecap:butt;stroke-linejoin:miter;stroke-opacity:1">
        <path
           d="m 31.523131,32.002516 v 1.100704 q -0.527098,-0.490924 -1.126543,-0.733803 -0.594277,-0.242878 -1.266068,-0.242878 -1.322913,0 -2.02571,0.811317 -0.702797,0.80615 -0.702797,2.335767 0,1.52445 0.702797,2.335768 0.702797,0.806149 2.02571,0.806149 0.671791,0 1.266068,-0.242878 0.599445,-0.242878 1.126543,-0.733803 v 1.090369 q -0.547768,0.372069 -1.162716,0.558104 -0.60978,0.186035 -1.291907,0.186035 -1.751825,0 -2.759512,-1.069699 -1.007688,-1.074867 -1.007688,-2.930045 0,-1.860345 1.007688,-2.930044 1.007687,-1.074866 2.759512,-1.074866 0.692462,0 1.302242,0.186034 0.614948,0.180867 1.152381,0.547769 z"
           id="path1643" />
        <path
           d="m 35.336839,34.002387 q -0.764808,0 -1.209224,0.599445 -0.444416,0.594277 -0.444416,1.63297 0,1.038693 0.439248,1.638138 0.444416,0.594277 1.214392,0.594277 0.759642,0 1.204057,-0.599445 0.444416,-0.599445 0.444416,-1.63297 0,-1.028358 -0.444416,-1.627802 -0.444415,-0.604613 -1.204057,-0.604613 z m 0,-0.80615 q 1.240231,0 1.948196,0.80615 0.707965,0.80615 0.707965,2.232415 0,1.421097 -0.707965,2.232415 -0.707965,0.80615 -1.948196,0.80615 -1.245398,0 -1.953363,-0.80615 -0.702797,-0.811318 -0.702797,-2.232415 0,-1.426265 0.702797,-2.232415 0.707965,-0.80615 1.953363,-0.80615 z"
           id="path1645" />
        <path
           d="m 44.075296,34.446803 q 0.356566,-0.640786 0.852658,-0.945676 0.496093,-0.30489 1.167884,-0.30489 0.904335,0 1.395259,0.635619 0.490925,0.63045 0.490925,1.798334 v 3.493315 h -0.956011 v -3.46231 q 0,-0.831988 -0.294555,-1.235062 -0.294555,-0.403075 -0.899167,-0.403075 -0.73897,0 -1.167884,0.490924 -0.428913,0.490925 -0.428913,1.338416 v 3.271107 h -0.95601 v -3.46231 q 0,-0.837155 -0.294555,-1.235062 -0.294555,-0.403075 -0.909503,-0.403075 -0.728635,0 -1.157548,0.496092 -0.428913,0.490924 -0.428913,1.333248 v 3.271107 h -0.956011 v -5.787742 h 0.956011 v 0.899167 q 0.325561,-0.532265 0.780312,-0.785479 0.454751,-0.253214 1.080034,-0.253214 0.63045,0 1.069698,0.320393 0.444416,0.320393 0.656289,0.930173 z"
           id="path1647" />
        <path
           d="m 50.798379,38.255344 v 3.06957 h -0.956011 v -7.989151 h 0.956011 v 0.878497 q 0.299722,-0.516763 0.754473,-0.764809 0.459919,-0.253214 1.095537,-0.253214 1.054196,0 1.710485,0.837156 0.661456,0.837156 0.661456,2.201409 0,1.364253 -0.661456,2.201409 -0.656289,0.837156 -1.710485,0.837156 -0.635618,0 -1.095537,-0.248047 -0.454751,-0.253213 -0.754473,-0.769976 z m 3.234934,-2.020542 q 0,-1.049028 -0.43408,-1.643305 -0.428913,-0.599445 -1.183387,-0.599445 -0.754473,0 -1.188554,0.599445 -0.428913,0.594277 -0.428913,1.643305 0,1.049028 0.428913,1.648473 0.434081,0.594277 1.188554,0.594277 0.754474,0 1.183387,-0.594277 0.43408,-0.599445 0.43408,-1.648473 z"
           id="path1649" />
        <path
           d="m 59.226778,36.214131 q -1.152381,0 -1.596797,0.263549 -0.444416,0.263549 -0.444416,0.899167 0,0.506428 0.330728,0.80615 0.335896,0.294555 0.909503,0.294555 0.790647,0 1.266068,-0.558104 0.48059,-0.563271 0.48059,-1.493444 v -0.211873 z m 1.896519,-0.392739 v 3.302113 h -0.950843 v -0.878496 q -0.325561,0.527098 -0.811318,0.780311 -0.485757,0.248047 -1.188554,0.248047 -0.888832,0 -1.41593,-0.496093 -0.52193,-0.501259 -0.52193,-1.338415 0,-0.976681 0.651121,-1.472774 0.656289,-0.496092 1.953363,-0.496092 h 1.333248 v -0.09302 q 0,-0.656289 -0.434081,-1.012855 -0.428913,-0.361734 -1.209225,-0.361734 -0.496092,0 -0.966346,0.118856 -0.470254,0.118855 -0.904335,0.356566 v -0.878497 q 0.521931,-0.201537 1.012855,-0.299722 0.490925,-0.103353 0.956011,-0.103353 1.255734,0 1.875849,0.651121 0.620115,0.651121 0.620115,1.974034 z"
           id="path1651" />
        <path
           d="m 67.892889,35.63019 v 3.493315 h -0.950843 v -3.46231 q 0,-0.821652 -0.320393,-1.229895 -0.320393,-0.408242 -0.961179,-0.408242 -0.769976,0 -1.214392,0.490924 -0.444416,0.490925 -0.444416,1.338416 v 3.271107 h -0.956011 v -5.787742 h 0.956011 v 0.899167 q 0.341063,-0.52193 0.800982,-0.780311 0.465087,-0.258382 1.069699,-0.258382 0.997352,0 1.508947,0.620116 0.511595,0.614947 0.511595,1.813837 z"
           id="path1653" />
        <path
           d="m 72.197519,39.660939 q -0.403075,1.033525 -0.785479,1.34875 -0.382404,0.315225 -1.02319,0.315225 H 69.629209 V 40.5291 h 0.558103 q 0.39274,0 0.60978,-0.186035 0.217041,-0.186034 0.48059,-0.878496 l 0.170531,-0.434081 -2.340935,-5.694725 h 1.007688 l 1.808669,4.526841 1.808669,-4.526841 h 1.007688 z"
           id="path1655" />
        <path
           d="m 25.745724,44.637365 h 1.043861 v 6.83677 h 3.756865 v 0.878496 h -4.800726 z"
           id="path1657" />
        <path
           d="m 33.657361,47.231513 q -0.764809,0 -1.209225,0.599445 -0.444416,0.594277 -0.444416,1.63297 0,1.038693 0.439248,1.638138 0.444416,0.594277 1.214393,0.594277 0.759641,0 1.204057,-0.599445 0.444416,-0.599445 0.444416,-1.63297 0,-1.028358 -0.444416,-1.627802 -0.444416,-0.604613 -1.204057,-0.604613 z m 0,-0.80615 q 1.24023,0 1.948195,0.80615 0.707965,0.80615 0.707965,2.232415 0,1.421097 -0.707965,2.232415 -0.707965,0.806149 -1.948195,0.806149 -1.245398,0 -1.953363,-0.806149 -0.702797,-0.811318 -0.702797,-2.232415 0,-1.426265 0.702797,-2.232415 0.707965,-0.80615 1.953363,-0.80615 z"
           id="path1659" />
        <path
           d="m 41.698188,49.391581 q 0,-1.033525 -0.428913,-1.601964 -0.423746,-0.568439 -1.193722,-0.568439 -0.764809,0 -1.193722,0.568439 -0.423745,0.568439 -0.423745,1.601964 0,1.028358 0.423745,1.596797 0.428913,0.568439 1.193722,0.568439 0.769976,0 1.193722,-0.568439 0.428913,-0.568439 0.428913,-1.596797 z m 0.950843,2.24275 q 0,1.477941 -0.656288,2.196242 -0.656289,0.723467 -2.010207,0.723467 -0.50126,0 -0.945676,-0.07751 -0.444416,-0.07235 -0.862994,-0.227376 v -0.925005 q 0.418578,0.227376 0.826821,0.335896 0.408242,0.10852 0.831988,0.10852 0.93534,0 1.400426,-0.490924 0.465087,-0.485757 0.465087,-1.472774 v -0.470254 q -0.294555,0.511595 -0.754474,0.764809 -0.459919,0.253213 -1.100704,0.253213 -1.064531,0 -1.715652,-0.811317 -0.651121,-0.811317 -0.651121,-2.149733 0,-1.343583 0.651121,-2.1549 0.651121,-0.811318 1.715652,-0.811318 0.640785,0 1.100704,0.253214 0.459919,0.253214 0.754474,0.764809 v -0.878497 h 0.950843 z"
           id="path1661" />
        <path
           d="m 46.850312,47.231513 q -0.764808,0 -1.209224,0.599445 -0.444416,0.594277 -0.444416,1.63297 0,1.038693 0.439248,1.638138 0.444416,0.594277 1.214392,0.594277 0.759642,0 1.204057,-0.599445 0.444416,-0.599445 0.444416,-1.63297 0,-1.028358 -0.444416,-1.627802 -0.444415,-0.604613 -1.204057,-0.604613 z m 0,-0.80615 q 1.240231,0 1.948196,0.80615 0.707965,0.80615 0.707965,2.232415 0,1.421097 -0.707965,2.232415 -0.707965,0.806149 -1.948196,0.806149 -1.245398,0 -1.953363,-0.806149 -0.702797,-0.811318 -0.702797,-2.232415 0,-1.426265 0.702797,-2.232415 0.707965,-0.80615 1.953363,-0.80615 z"
           id="path1663" />
      </g>
    </g>
    <g
       id="g1332">
      <path
         id="rect833-3"
         style="fill:none;stroke:#000000;stroke-width:2.64583;stroke-miterlimit:4;stroke-dasharray:none;stroke-opacity:1"
         d="m 113.77084,11.906248 h 142.875 v 63.500004 h -142.875 z" />
      <g
         aria-label="Company Contact
"
         transform="translate(9.0977371,4.6348271)"
         id="text856"
         style="font-style:normal;font-weight:normal;font-size:10.5833px;line-height:125%;font-family:sans-serif;letter-spacing:0px;word-spacing:0px;white-space:pre;shape-inside:url(#rect858);fill:#000000;fill-opacity:1;stroke:none;stroke-width:0.264583px;stroke-linecap:butt;stroke-linejoin:miter;stroke-opacity:1">
        <path
           d="m 135.31219,34.727125 v 1.100705 q -0.52709,-0.490925 -1.12654,-0.733803 -0.59428,-0.242879 -1.26607,-0.242879 -1.32291,0 -2.02571,0.811317 -0.70279,0.80615 -0.70279,2.335768 0,1.52445 0.70279,2.335767 0.7028,0.80615 2.02571,0.80615 0.67179,0 1.26607,-0.242879 0.59945,-0.242878 1.12654,-0.733803 v 1.09037 q -0.54776,0.372069 -1.16271,0.558103 -0.60978,0.186035 -1.29191,0.186035 -1.75182,0 -2.75951,-1.069699 -1.00769,-1.074866 -1.00769,-2.930044 0,-1.860346 1.00769,-2.930045 1.00769,-1.074866 2.75951,-1.074866 0.69246,0 1.30224,0.186035 0.61495,0.180867 1.15238,0.547768 z"
           id="path1382" />
        <path
           d="m 139.1259,36.726997 q -0.76481,0 -1.20922,0.599444 -0.44442,0.594277 -0.44442,1.63297 0,1.038693 0.43925,1.638138 0.44442,0.594277 1.21439,0.594277 0.75964,0 1.20406,-0.599445 0.44441,-0.599444 0.44441,-1.63297 0,-1.028357 -0.44441,-1.627802 -0.44442,-0.604612 -1.20406,-0.604612 z m 0,-0.80615 q 1.24023,0 1.9482,0.80615 0.70796,0.806149 0.70796,2.232414 0,1.421098 -0.70796,2.232415 -0.70797,0.80615 -1.9482,0.80615 -1.2454,0 -1.95336,-0.80615 -0.7028,-0.811317 -0.7028,-2.232415 0,-1.426265 0.7028,-2.232414 0.70796,-0.80615 1.95336,-0.80615 z"
           id="path1384" />
        <path
           d="m 147.86436,37.171412 q 0.35656,-0.640785 0.85266,-0.945675 0.49609,-0.30489 1.16788,-0.30489 0.90434,0 1.39526,0.635618 0.49092,0.63045 0.49092,1.798334 v 3.493316 h -0.95601 v -3.46231 q 0,-0.831988 -0.29455,-1.235063 -0.29456,-0.403075 -0.89917,-0.403075 -0.73897,0 -1.16788,0.490925 -0.42892,0.490924 -0.42892,1.338415 v 3.271108 h -0.95601 v -3.46231 q 0,-0.837156 -0.29455,-1.235063 -0.29456,-0.403075 -0.9095,-0.403075 -0.72864,0 -1.15755,0.496092 -0.42891,0.490925 -0.42891,1.333248 v 3.271108 h -0.95602 v -5.787742 h 0.95602 v 0.899167 q 0.32556,-0.532266 0.78031,-0.785479 0.45475,-0.253214 1.08003,-0.253214 0.63045,0 1.0697,0.320393 0.44442,0.320393 0.65629,0.930172 z"
           id="path1386" />
        <path
           d="m 154.58744,40.979953 v 3.069571 h -0.95601 v -7.989151 h 0.95601 v 0.878496 q 0.29972,-0.516762 0.75447,-0.764808 0.45992,-0.253214 1.09554,-0.253214 1.0542,0 1.71049,0.837155 0.66145,0.837156 0.66145,2.201409 0,1.364254 -0.66145,2.201409 -0.65629,0.837156 -1.71049,0.837156 -0.63562,0 -1.09554,-0.248046 -0.45475,-0.253214 -0.75447,-0.769977 z m 3.23494,-2.020542 q 0,-1.049028 -0.43408,-1.643305 -0.42892,-0.599445 -1.18339,-0.599445 -0.75447,0 -1.18856,0.599445 -0.42891,0.594277 -0.42891,1.643305 0,1.049029 0.42891,1.648473 0.43409,0.594277 1.18856,0.594277 0.75447,0 1.18339,-0.594277 0.43408,-0.599444 0.43408,-1.648473 z"
           id="path1388" />
        <path
           d="m 163.01584,38.938741 q -1.15238,0 -1.5968,0.263549 -0.44441,0.263549 -0.44441,0.899167 0,0.506427 0.33073,0.80615 0.33589,0.294554 0.9095,0.294554 0.79065,0 1.26607,-0.558103 0.48059,-0.563272 0.48059,-1.493444 v -0.211873 z m 1.89652,-0.39274 v 3.302114 h -0.95084 v -0.878497 q -0.32556,0.527098 -0.81132,0.780312 -0.48576,0.248046 -1.18856,0.248046 -0.88883,0 -1.41593,-0.496092 -0.52193,-0.50126 -0.52193,-1.338416 0,-0.976681 0.65113,-1.472773 0.65628,-0.496092 1.95336,-0.496092 h 1.33325 v -0.09302 q 0,-0.656288 -0.43408,-1.012855 -0.42892,-0.361733 -1.20923,-0.361733 -0.49609,0 -0.96635,0.118855 -0.47025,0.118855 -0.90433,0.356566 v -0.878496 q 0.52193,-0.201538 1.01285,-0.299723 0.49093,-0.103352 0.95602,-0.103352 1.25573,0 1.87584,0.651121 0.62012,0.651121 0.62012,1.974033 z"
           id="path1390" />
        <path
           d="m 171.68195,38.354799 v 3.493316 h -0.95084 v -3.46231 q 0,-0.821653 -0.32039,-1.229895 -0.3204,-0.408243 -0.96118,-0.408243 -0.76998,0 -1.2144,0.490925 -0.44441,0.490924 -0.44441,1.338415 v 3.271108 h -0.95601 v -5.787742 h 0.95601 v 0.899167 q 0.34106,-0.521931 0.80098,-0.780312 0.46509,-0.258381 1.0697,-0.258381 0.99735,0 1.50895,0.620115 0.51159,0.614948 0.51159,1.813837 z"
           id="path1392" />
        <path
           d="m 175.98658,42.385548 q -0.40307,1.033525 -0.78548,1.34875 -0.3824,0.315226 -1.02319,0.315226 h -0.75964 v -0.795815 h 0.5581 q 0.39274,0 0.60978,-0.186034 0.21705,-0.186035 0.48059,-0.878497 l 0.17054,-0.434081 -2.34094,-5.694724 h 1.00769 l 1.80867,4.526841 1.80867,-4.526841 h 1.00768 z"
           id="path1394" />
        <path
           d="m 189.0245,34.727125 v 1.100705 q -0.52709,-0.490925 -1.12654,-0.733803 -0.59428,-0.242879 -1.26607,-0.242879 -1.32291,0 -2.02571,0.811317 -0.70279,0.80615 -0.70279,2.335768 0,1.52445 0.70279,2.335767 0.7028,0.80615 2.02571,0.80615 0.67179,0 1.26607,-0.242879 0.59945,-0.242878 1.12654,-0.733803 v 1.09037 q -0.54776,0.372069 -1.16271,0.558103 -0.60978,0.186035 -1.29191,0.186035 -1.75182,0 -2.75951,-1.069699 -1.00769,-1.074866 -1.00769,-2.930044 0,-1.860346 1.00769,-2.930045 1.00769,-1.074866 2.75951,-1.074866 0.69246,0 1.30224,0.186035 0.61495,0.180867 1.15238,0.547768 z"
           id="path1396" />
        <path
           d="m 192.83822,36.726997 q -0.76481,0 -1.20923,0.599444 -0.44441,0.594277 -0.44441,1.63297 0,1.038693 0.43924,1.638138 0.44442,0.594277 1.2144,0.594277 0.75964,0 1.20405,-0.599445 0.44442,-0.599444 0.44442,-1.63297 0,-1.028357 -0.44442,-1.627802 -0.44441,-0.604612 -1.20405,-0.604612 z m 0,-0.80615 q 1.24023,0 1.94819,0.80615 0.70797,0.806149 0.70797,2.232414 0,1.421098 -0.70797,2.232415 -0.70796,0.80615 -1.94819,0.80615 -1.2454,0 -1.95337,-0.80615 -0.70279,-0.811317 -0.70279,-2.232415 0,-1.426265 0.70279,-2.232414 0.70797,-0.80615 1.95337,-0.80615 z"
           id="path1398" />
        <path
           d="m 201.88156,38.354799 v 3.493316 h -0.95084 v -3.46231 q 0,-0.821653 -0.32039,-1.229895 -0.3204,-0.408243 -0.96118,-0.408243 -0.76998,0 -1.21439,0.490925 -0.44442,0.490924 -0.44442,1.338415 v 3.271108 h -0.95601 v -5.787742 h 0.95601 v 0.899167 q 0.34106,-0.521931 0.80098,-0.780312 0.46509,-0.258381 1.0697,-0.258381 0.99735,0 1.50895,0.620115 0.51159,0.614948 0.51159,1.813837 z"
           id="path1400" />
        <path
           d="m 204.71859,34.417067 v 1.643306 h 1.95853 v 0.73897 h -1.95853 v 3.141917 q 0,0.707965 0.1912,0.909503 0.19637,0.201537 0.79065,0.201537 h 0.97668 v 0.795815 h -0.97668 q -1.1007,0 -1.51928,-0.408243 -0.41858,-0.41341 -0.41858,-1.498612 v -3.141917 h -0.69763 v -0.73897 h 0.69763 v -1.643306 z"
           id="path1402" />
        <path
           d="m 210.55801,38.938741 q -1.15238,0 -1.5968,0.263549 -0.44441,0.263549 -0.44441,0.899167 0,0.506427 0.33073,0.80615 0.33589,0.294554 0.9095,0.294554 0.79064,0 1.26607,-0.558103 0.48059,-0.563272 0.48059,-1.493444 v -0.211873 z m 1.89652,-0.39274 v 3.302114 h -0.95084 v -0.878497 q -0.32556,0.527098 -0.81132,0.780312 -0.48576,0.248046 -1.18856,0.248046 -0.88883,0 -1.41593,-0.496092 -0.52193,-0.50126 -0.52193,-1.338416 0,-0.976681 0.65113,-1.472773 0.65628,-0.496092 1.95336,-0.496092 h 1.33325 v -0.09302 q 0,-0.656288 -0.43408,-1.012855 -0.42892,-0.361733 -1.20923,-0.361733 -0.49609,0 -0.96635,0.118855 -0.47025,0.118855 -0.90433,0.356566 v -0.878496 q 0.52193,-0.201538 1.01285,-0.299723 0.49093,-0.103352 0.95602,-0.103352 1.25573,0 1.87584,0.651121 0.62012,0.651121 0.62012,1.974033 z"
           id="path1404" />
        <path
           d="m 218.57816,36.282581 v 0.888831 q -0.40307,-0.222207 -0.81132,-0.330728 -0.40307,-0.113687 -0.81648,-0.113687 -0.92501,0 -1.4366,0.589109 -0.5116,0.583942 -0.5116,1.643305 0,1.059364 0.5116,1.648473 0.51159,0.583942 1.4366,0.583942 0.41341,0 0.81648,-0.10852 0.40825,-0.113688 0.81132,-0.335896 v 0.878497 q -0.39791,0.186034 -0.82682,0.279052 -0.42374,0.09302 -0.90433,0.09302 -1.30741,0 -2.07739,-0.821653 -0.76998,-0.821652 -0.76998,-2.216912 0,-1.415929 0.77515,-2.227247 0.78031,-0.811317 2.13423,-0.811317 0.43925,0 0.85782,0.09302 0.41858,0.08785 0.81132,0.268717 z"
           id="path1406" />
        <path
           d="m 221.17231,34.417067 v 1.643306 h 1.95853 v 0.73897 h -1.95853 v 3.141917 q 0,0.707965 0.1912,0.909503 0.19637,0.201537 0.79065,0.201537 h 0.97668 v 0.795815 h -0.97668 q -1.1007,0 -1.51928,-0.408243 -0.41858,-0.41341 -0.41858,-1.498612 v -3.141917 h -0.69763 v -0.73897 h 0.69763 v -1.643306 z"
           id="path1408" />
      </g>
    </g>
    <g
       id="g1338">
      <path
         id="rect833-3-6"
         style="fill:none;stroke:#000000;stroke-width:2.64583;stroke-miterlimit:4;stroke-dasharray:none;stroke-opacity:1"
         d="M 11.906249,93.927086 H 255.32292 V 157.42709 H 11.906249 Z" />
      <g
         aria-label="Company About
"
         transform="translate(-37.553188,86.748682)"
         id="text856-5"
         style="font-style:normal;font-weight:normal;font-size:10.5833px;line-height:125%;font-family:sans-serif;letter-spacing:0px;word-spacing:0px;white-space:pre;shape-inside:url(#rect858-7);fill:#000000;fill-opacity:1;stroke:none;stroke-width:0.264583px;stroke-linecap:butt;stroke-linejoin:miter;stroke-opacity:1">
        <path
           d="m 135.31219,34.727125 v 1.100705 q -0.52709,-0.490925 -1.12654,-0.733803 -0.59428,-0.242879 -1.26607,-0.242879 -1.32291,0 -2.02571,0.811317 -0.70279,0.80615 -0.70279,2.335768 0,1.52445 0.70279,2.335767 0.7028,0.80615 2.02571,0.80615 0.67179,0 1.26607,-0.242879 0.59945,-0.242878 1.12654,-0.733803 v 1.09037 q -0.54776,0.372069 -1.16271,0.558103 -0.60978,0.186035 -1.29191,0.186035 -1.75182,0 -2.75951,-1.069699 -1.00769,-1.074866 -1.00769,-2.930044 0,-1.860346 1.00769,-2.930045 1.00769,-1.074866 2.75951,-1.074866 0.69246,0 1.30224,0.186035 0.61495,0.180867 1.15238,0.547768 z"
           id="path1616" />
        <path
           d="m 139.1259,36.726997 q -0.76481,0 -1.20922,0.599444 -0.44442,0.594277 -0.44442,1.63297 0,1.038693 0.43925,1.638138 0.44442,0.594277 1.21439,0.594277 0.75964,0 1.20406,-0.599445 0.44441,-0.599444 0.44441,-1.63297 0,-1.028357 -0.44441,-1.627802 -0.44442,-0.604612 -1.20406,-0.604612 z m 0,-0.80615 q 1.24023,0 1.9482,0.80615 0.70796,0.806149 0.70796,2.232414 0,1.421098 -0.70796,2.232415 -0.70797,0.80615 -1.9482,0.80615 -1.2454,0 -1.95336,-0.80615 -0.7028,-0.811317 -0.7028,-2.232415 0,-1.426265 0.7028,-2.232414 0.70796,-0.80615 1.95336,-0.80615 z"
           id="path1618" />
        <path
           d="m 147.86436,37.171412 q 0.35656,-0.640785 0.85266,-0.945675 0.49609,-0.30489 1.16788,-0.30489 0.90434,0 1.39526,0.635618 0.49092,0.63045 0.49092,1.798334 v 3.493316 h -0.95601 v -3.46231 q 0,-0.831988 -0.29455,-1.235063 -0.29456,-0.403075 -0.89917,-0.403075 -0.73897,0 -1.16788,0.490925 -0.42892,0.490924 -0.42892,1.338415 v 3.271108 h -0.95601 v -3.46231 q 0,-0.837156 -0.29455,-1.235063 -0.29456,-0.403075 -0.9095,-0.403075 -0.72864,0 -1.15755,0.496092 -0.42891,0.490925 -0.42891,1.333248 v 3.271108 h -0.95602 v -5.787742 h 0.95602 v 0.899167 q 0.32556,-0.532266 0.78031,-0.785479 0.45475,-0.253214 1.08003,-0.253214 0.63045,0 1.0697,0.320393 0.44442,0.320393 0.65629,0.930172 z"
           id="path1620" />
        <path
           d="m 154.58744,40.979953 v 3.069571 h -0.95601 v -7.989151 h 0.95601 v 0.878496 q 0.29972,-0.516762 0.75447,-0.764808 0.45992,-0.253214 1.09554,-0.253214 1.0542,0 1.71049,0.837155 0.66145,0.837156 0.66145,2.201409 0,1.364254 -0.66145,2.201409 -0.65629,0.837156 -1.71049,0.837156 -0.63562,0 -1.09554,-0.248046 -0.45475,-0.253214 -0.75447,-0.769977 z m 3.23494,-2.020542 q 0,-1.049028 -0.43408,-1.643305 -0.42892,-0.599445 -1.18339,-0.599445 -0.75447,0 -1.18856,0.599445 -0.42891,0.594277 -0.42891,1.643305 0,1.049029 0.42891,1.648473 0.43409,0.594277 1.18856,0.594277 0.75447,0 1.18339,-0.594277 0.43408,-0.599444 0.43408,-1.648473 z"
           id="path1622" />
        <path
           d="m 163.01584,38.938741 q -1.15238,0 -1.5968,0.263549 -0.44441,0.263549 -0.44441,0.899167 0,0.506427 0.33073,0.80615 0.33589,0.294554 0.9095,0.294554 0.79065,0 1.26607,-0.558103 0.48059,-0.563272 0.48059,-1.493444 v -0.211873 z m 1.89652,-0.39274 v 3.302114 h -0.95084 v -0.878497 q -0.32556,0.527098 -0.81132,0.780312 -0.48576,0.248046 -1.18856,0.248046 -0.88883,0 -1.41593,-0.496092 -0.52193,-0.50126 -0.52193,-1.338416 0,-0.976681 0.65113,-1.472773 0.65628,-0.496092 1.95336,-0.496092 h 1.33325 v -0.09302 q 0,-0.656288 -0.43408,-1.012855 -0.42892,-0.361733 -1.20923,-0.361733 -0.49609,0 -0.96635,0.118855 -0.47025,0.118855 -0.90433,0.356566 v -0.878496 q 0.52193,-0.201538 1.01285,-0.299723 0.49093,-0.103352 0.95602,-0.103352 1.25573,0 1.87584,0.651121 0.62012,0.651121 0.62012,1.974033 z"
           id="path1624" />
        <path
           d="m 171.68195,38.354799 v 3.493316 h -0.95084 v -3.46231 q 0,-0.821653 -0.32039,-1.229895 -0.3204,-0.408243 -0.96118,-0.408243 -0.76998,0 -1.2144,0.490925 -0.44441,0.490924 -0.44441,1.338415 v 3.271108 h -0.95601 v -5.787742 h 0.95601 v 0.899167 q 0.34106,-0.521931 0.80098,-0.780312 0.46509,-0.258381 1.0697,-0.258381 0.99735,0 1.50895,0.620115 0.51159,0.614948 0.51159,1.813837 z"
           id="path1626" />
        <path
           d="m 175.98658,42.385548 q -0.40307,1.033525 -0.78548,1.34875 -0.3824,0.315226 -1.02319,0.315226 h -0.75964 v -0.795815 h 0.5581 q 0.39274,0 0.60978,-0.186034 0.21705,-0.186035 0.48059,-0.878497 l 0.17054,-0.434081 -2.34094,-5.694724 h 1.00769 l 1.80867,4.526841 1.80867,-4.526841 h 1.00768 z"
           id="path1628" />
        <path
           d="m 185.82574,35.161206 -1.41593,3.839546 h 2.83703 z m -0.58911,-1.028358 h 1.18339 l 2.94038,7.715267 h -1.0852 l -0.7028,-1.979201 h -3.47781 l -0.7028,1.979201 h -1.1007 z"
           id="path1630" />
        <path
           d="m 194.60037,38.959411 q 0,-1.049028 -0.43408,-1.643305 -0.42891,-0.599445 -1.18338,-0.599445 -0.75448,0 -1.18856,0.599445 -0.42891,0.594277 -0.42891,1.643305 0,1.049029 0.42891,1.648473 0.43408,0.594277 1.18856,0.594277 0.75447,0 1.18338,-0.594277 0.43408,-0.599444 0.43408,-1.648473 z m -3.23493,-2.020542 q 0.29972,-0.516762 0.75447,-0.764808 0.45992,-0.253214 1.09554,-0.253214 1.0542,0 1.71048,0.837155 0.66146,0.837156 0.66146,2.201409 0,1.364254 -0.66146,2.201409 -0.65628,0.837156 -1.71048,0.837156 -0.63562,0 -1.09554,-0.248046 -0.45475,-0.253214 -0.75447,-0.769977 v 0.868162 h -0.95601 v -8.040828 h 0.95601 z"
           id="path1632" />
        <path
           d="m 199.40627,36.726997 q -0.76481,0 -1.20922,0.599444 -0.44442,0.594277 -0.44442,1.63297 0,1.038693 0.43925,1.638138 0.44441,0.594277 1.21439,0.594277 0.75964,0 1.20406,-0.599445 0.44441,-0.599444 0.44441,-1.63297 0,-1.028357 -0.44441,-1.627802 -0.44442,-0.604612 -1.20406,-0.604612 z m 0,-0.80615 q 1.24023,0 1.9482,0.80615 0.70796,0.806149 0.70796,2.232414 0,1.421098 -0.70796,2.232415 -0.70797,0.80615 -1.9482,0.80615 -1.2454,0 -1.95336,-0.80615 -0.7028,-0.811317 -0.7028,-2.232415 0,-1.426265 0.7028,-2.232414 0.70796,-0.80615 1.95336,-0.80615 z"
           id="path1634" />
        <path
           d="m 203.54037,39.564024 v -3.503651 h 0.95085 v 3.467477 q 0,0.821653 0.32039,1.235063 0.32039,0.408243 0.96118,0.408243 0.76997,0 1.21439,-0.490925 0.44958,-0.490924 0.44958,-1.338415 v -3.281443 h 0.95085 v 5.787742 h -0.95085 v -0.888832 q -0.34623,0.527098 -0.80615,0.785479 -0.45475,0.253214 -1.05936,0.253214 -0.99735,0 -1.51412,-0.620115 -0.51676,-0.620116 -0.51676,-1.813837 z m 2.39261,-3.643177 z"
           id="path1636" />
        <path
           d="m 211.28665,34.417067 v 1.643306 h 1.95853 v 0.73897 h -1.95853 v 3.141917 q 0,0.707965 0.1912,0.909503 0.19637,0.201537 0.79064,0.201537 h 0.97669 v 0.795815 h -0.97669 q -1.1007,0 -1.51928,-0.408243 -0.41858,-0.41341 -0.41858,-1.498612 V 36.799343 H 209.633 v -0.73897 h 0.69763 v -1.643306 z"
           id="path1638" />
      </g>
    </g>
    <g
       id="g1352">
      <path
         id="rect833-6"
         style="fill:none;stroke:#000000;stroke-width:2.64583;stroke-miterlimit:4;stroke-dasharray:none;stroke-opacity:1"
         d="m 11.906248,173.30208 h 63.500004 v 63.50001 H 11.906248 Z" />
      <g
         aria-label="Product
Logo"
         transform="translate(-1.5352527,162.23372)"
         id="text835-2"
         style="font-style:normal;font-weight:normal;font-size:10.5833px;line-height:125%;font-family:sans-serif;letter-spacing:0px;word-spacing:0px;white-space:pre;shape-inside:url(#rect837-3);fill:#000000;fill-opacity:1;stroke:none;stroke-width:0.264583px;stroke-linecap:butt;stroke-linejoin:miter;stroke-opacity:1">
        <path
           d="m 26.789585,32.266065 v 2.899038 h 1.312577 q 0.728635,0 1.126543,-0.377237 0.397907,-0.377236 0.397907,-1.074866 0,-0.692462 -0.397907,-1.069699 -0.397908,-0.377236 -1.126543,-0.377236 z m -1.043861,-0.857826 h 2.356438 q 1.297074,0 1.958531,0.589109 0.666623,0.583942 0.666623,1.715652 0,1.142046 -0.666623,1.725987 -0.661457,0.583942 -1.958531,0.583942 h -1.312577 v 3.100576 h -1.043861 z"
           id="path1592" />
        <path
           d="m 35.254157,34.224595 q -0.160196,-0.09302 -0.351398,-0.134358 -0.186035,-0.04651 -0.41341,-0.04651 -0.80615,0 -1.240231,0.527098 -0.428913,0.52193 -0.428913,1.50378 v 3.048899 h -0.956011 v -5.787742 h 0.956011 v 0.899167 q 0.299723,-0.527098 0.780312,-0.780311 0.480589,-0.258382 1.167883,-0.258382 0.09819,0 0.217041,0.0155 0.118855,0.01034 0.263549,0.03617 z"
           id="path1594" />
        <path
           d="m 38.261716,34.002387 q -0.764809,0 -1.209225,0.599445 -0.444416,0.594277 -0.444416,1.63297 0,1.038693 0.439249,1.638138 0.444416,0.594277 1.214392,0.594277 0.759641,0 1.204057,-0.599445 0.444416,-0.599445 0.444416,-1.63297 0,-1.028358 -0.444416,-1.627802 -0.444416,-0.604613 -1.204057,-0.604613 z m 0,-0.80615 q 1.24023,0 1.948195,0.80615 0.707965,0.80615 0.707965,2.232415 0,1.421097 -0.707965,2.232415 -0.707965,0.80615 -1.948195,0.80615 -1.245398,0 -1.953363,-0.80615 -0.702797,-0.811318 -0.702797,-2.232415 0,-1.426265 0.702797,-2.232415 0.707965,-0.80615 1.953363,-0.80615 z"
           id="path1596" />
        <path
           d="m 46.302544,34.21426 v -3.131582 h 0.950843 v 8.040827 h -0.950843 v -0.868161 q -0.299723,0.516763 -0.759642,0.769976 -0.454751,0.248047 -1.095536,0.248047 -1.049029,0 -1.710485,-0.837156 -0.656288,-0.837156 -0.656288,-2.201409 0,-1.364253 0.656288,-2.201409 0.661456,-0.837156 1.710485,-0.837156 0.640785,0 1.095536,0.253214 0.459919,0.248046 0.759642,0.764809 z m -3.240102,2.020542 q 0,1.049028 0.428913,1.648473 0.43408,0.594277 1.188554,0.594277 0.754473,0 1.188554,-0.594277 0.434081,-0.599445 0.434081,-1.648473 0,-1.049028 -0.434081,-1.643305 -0.434081,-0.599445 -1.188554,-0.599445 -0.754474,0 -1.188554,0.599445 -0.428913,0.594277 -0.428913,1.643305 z"
           id="path1598" />
        <path
           d="m 49.113732,36.839414 v -3.503651 h 0.950844 v 3.467478 q 0,0.821653 0.320393,1.235063 0.320392,0.408242 0.961178,0.408242 0.769976,0 1.214392,-0.490924 0.449584,-0.490925 0.449584,-1.338416 v -3.281443 h 0.950843 v 5.787742 h -0.950843 v -0.888831 q -0.346231,0.527097 -0.80615,0.785479 -0.454751,0.253214 -1.059363,0.253214 -0.997352,0 -1.514115,-0.620116 -0.516763,-0.620115 -0.516763,-1.813837 z m 2.392612,-3.643177 z"
           id="path1600" />
        <path
           d="m 60.084603,33.557971 v 0.888832 q -0.403075,-0.222208 -0.811317,-0.330728 -0.403075,-0.113688 -0.816485,-0.113688 -0.925006,0 -1.436601,0.58911 -0.511595,0.583941 -0.511595,1.643305 0,1.059363 0.511595,1.648473 0.511595,0.583942 1.436601,0.583942 0.41341,0 0.816485,-0.10852 0.408242,-0.113688 0.811317,-0.335896 v 0.878496 q -0.397907,0.186035 -0.82682,0.279052 -0.423746,0.09302 -0.904335,0.09302 -1.307409,0 -2.077386,-0.821653 -0.769976,-0.821653 -0.769976,-2.216912 0,-1.41593 0.775144,-2.227247 0.780311,-0.811318 2.13423,-0.811318 0.439248,0 0.857826,0.09302 0.418577,0.08785 0.811317,0.268716 z"
           id="path1602" />
        <path
           d="m 62.678751,31.692458 v 1.643305 h 1.95853 v 0.738971 h -1.95853 v 3.141917 q 0,0.707965 0.191202,0.909502 0.19637,0.201538 0.790647,0.201538 h 0.976681 v 0.795814 H 63.6606 q -1.100705,0 -1.519283,-0.408242 -0.418577,-0.41341 -0.418577,-1.498612 v -3.141917 h -0.69763 v -0.738971 h 0.69763 v -1.643305 z"
           id="path1604" />
        <path
           d="m 25.745724,44.637365 h 1.043861 v 6.83677 h 3.756865 v 0.878496 h -4.800726 z"
           id="path1606" />
        <path
           d="m 33.657361,47.231513 q -0.764809,0 -1.209225,0.599445 -0.444416,0.594277 -0.444416,1.63297 0,1.038693 0.439248,1.638138 0.444416,0.594277 1.214393,0.594277 0.759641,0 1.204057,-0.599445 0.444416,-0.599445 0.444416,-1.63297 0,-1.028358 -0.444416,-1.627802 -0.444416,-0.604613 -1.204057,-0.604613 z m 0,-0.80615 q 1.24023,0 1.948195,0.80615 0.707965,0.80615 0.707965,2.232415 0,1.421097 -0.707965,2.232415 -0.707965,0.806149 -1.948195,0.806149 -1.245398,0 -1.953363,-0.806149 -0.702797,-0.811318 -0.702797,-2.232415 0,-1.426265 0.702797,-2.232415 0.707965,-0.80615 1.953363,-0.80615 z"
           id="path1608" />
        <path
           d="m 41.698188,49.391581 q 0,-1.033525 -0.428913,-1.601964 -0.423746,-0.568439 -1.193722,-0.568439 -0.764809,0 -1.193722,0.568439 -0.423745,0.568439 -0.423745,1.601964 0,1.028358 0.423745,1.596797 0.428913,0.568439 1.193722,0.568439 0.769976,0 1.193722,-0.568439 0.428913,-0.568439 0.428913,-1.596797 z m 0.950843,2.24275 q 0,1.477941 -0.656288,2.196242 -0.656289,0.723467 -2.010207,0.723467 -0.50126,0 -0.945676,-0.07751 -0.444416,-0.07235 -0.862994,-0.227376 v -0.925005 q 0.418578,0.227376 0.826821,0.335896 0.408242,0.10852 0.831988,0.10852 0.93534,0 1.400426,-0.490924 0.465087,-0.485757 0.465087,-1.472774 v -0.470254 q -0.294555,0.511595 -0.754474,0.764809 -0.459919,0.253213 -1.100704,0.253213 -1.064531,0 -1.715652,-0.811317 -0.651121,-0.811317 -0.651121,-2.149733 0,-1.343583 0.651121,-2.1549 0.651121,-0.811318 1.715652,-0.811318 0.640785,0 1.100704,0.253214 0.459919,0.253214 0.754474,0.764809 v -0.878497 h 0.950843 z"
           id="path1610" />
        <path
           d="m 46.850312,47.231513 q -0.764808,0 -1.209224,0.599445 -0.444416,0.594277 -0.444416,1.63297 0,1.038693 0.439248,1.638138 0.444416,0.594277 1.214392,0.594277 0.759642,0 1.204057,-0.599445 0.444416,-0.599445 0.444416,-1.63297 0,-1.028358 -0.444416,-1.627802 -0.444415,-0.604613 -1.204057,-0.604613 z m 0,-0.80615 q 1.240231,0 1.948196,0.80615 0.707965,0.80615 0.707965,2.232415 0,1.421097 -0.707965,2.232415 -0.707965,0.806149 -1.948196,0.806149 -1.245398,0 -1.953363,-0.806149 -0.702797,-0.811318 -0.702797,-2.232415 0,-1.426265 0.702797,-2.232415 0.707965,-0.80615 1.953363,-0.80615 z"
           id="path1612" />
      </g>
    </g>
    <g
       id="g1358">
      <path
         id="rect833-3-9"
         style="fill:none;stroke:#000000;stroke-width:2.64583;stroke-miterlimit:4;stroke-dasharray:none;stroke-opacity:1"
         d="m 113.77084,199.76042 h 142.875 v 37.04167 h -142.875 z" />
      <g
         aria-label="Product Description
"
         transform="translate(4.7310913,179.35285)"
         id="text856-1"
         style="font-style:normal;font-weight:normal;font-size:10.5833px;line-height:125%;font-family:sans-serif;letter-spacing:0px;word-spacing:0px;white-space:pre;shape-inside:url(#rect858-5);fill:#000000;fill-opacity:1;stroke:none;stroke-width:0.264583px;stroke-linecap:butt;stroke-linejoin:miter;stroke-opacity:1">
        <path
           d="m 130.57865,34.990674 v 2.899039 h 1.31257 q 0.72864,0 1.12655,-0.377237 0.3979,-0.377237 0.3979,-1.074867 0,-0.692462 -0.3979,-1.069698 -0.39791,-0.377237 -1.12655,-0.377237 z m -1.04386,-0.857826 h 2.35643 q 1.29708,0 1.95854,0.589109 0.66662,0.583942 0.66662,1.715652 0,1.142046 -0.66662,1.725988 -0.66146,0.583942 -1.95854,0.583942 h -1.31257 v 3.100576 h -1.04386 z"
           id="path1554" />
        <path
           d="m 139.04322,36.949205 q -0.1602,-0.09302 -0.3514,-0.134359 -0.18603,-0.04651 -0.41341,-0.04651 -0.80615,0 -1.24023,0.527098 -0.42891,0.52193 -0.42891,1.503779 v 3.0489 h -0.95601 v -5.787742 h 0.95601 v 0.899167 q 0.29972,-0.527098 0.78031,-0.780312 0.48059,-0.258381 1.16788,-0.258381 0.0982,0 0.21704,0.0155 0.11886,0.01034 0.26355,0.03617 z"
           id="path1556" />
        <path
           d="m 142.05078,36.726997 q -0.76481,0 -1.20923,0.599444 -0.44441,0.594277 -0.44441,1.63297 0,1.038693 0.43925,1.638138 0.44441,0.594277 1.21439,0.594277 0.75964,0 1.20406,-0.599445 0.44441,-0.599444 0.44441,-1.63297 0,-1.028357 -0.44441,-1.627802 -0.44442,-0.604612 -1.20406,-0.604612 z m 0,-0.80615 q 1.24023,0 1.94819,0.80615 0.70797,0.806149 0.70797,2.232414 0,1.421098 -0.70797,2.232415 -0.70796,0.80615 -1.94819,0.80615 -1.2454,0 -1.95336,-0.80615 -0.7028,-0.811317 -0.7028,-2.232415 0,-1.426265 0.7028,-2.232414 0.70796,-0.80615 1.95336,-0.80615 z"
           id="path1558" />
        <path
           d="m 150.09161,36.938869 v -3.131582 h 0.95084 v 8.040828 h -0.95084 v -0.868162 q -0.29973,0.516763 -0.75965,0.769977 -0.45475,0.248046 -1.09553,0.248046 -1.04903,0 -1.71049,-0.837156 -0.65628,-0.837155 -0.65628,-2.201409 0,-1.364253 0.65628,-2.201409 0.66146,-0.837155 1.71049,-0.837155 0.64078,0 1.09553,0.253214 0.45992,0.248046 0.75965,0.764808 z m -3.24011,2.020542 q 0,1.049029 0.42892,1.648473 0.43408,0.594277 1.18855,0.594277 0.75447,0 1.18856,-0.594277 0.43408,-0.599444 0.43408,-1.648473 0,-1.049028 -0.43408,-1.643305 -0.43409,-0.599445 -1.18856,-0.599445 -0.75447,0 -1.18855,0.599445 -0.42892,0.594277 -0.42892,1.643305 z"
           id="path1560" />
        <path
           d="m 152.90279,39.564024 v -3.503651 h 0.95085 v 3.467477 q 0,0.821653 0.32039,1.235063 0.32039,0.408243 0.96118,0.408243 0.76998,0 1.21439,-0.490925 0.44959,-0.490924 0.44959,-1.338415 v -3.281443 h 0.95084 v 5.787742 h -0.95084 v -0.888832 q -0.34624,0.527098 -0.80615,0.785479 -0.45476,0.253214 -1.05937,0.253214 -0.99735,0 -1.51411,-0.620115 -0.51677,-0.620116 -0.51677,-1.813837 z m 2.39262,-3.643177 z"
           id="path1562" />
        <path
           d="m 163.87367,36.282581 v 0.888831 q -0.40308,-0.222207 -0.81132,-0.330728 -0.40308,-0.113687 -0.81649,-0.113687 -0.925,0 -1.4366,0.589109 -0.51159,0.583942 -0.51159,1.643305 0,1.059364 0.51159,1.648473 0.5116,0.583942 1.4366,0.583942 0.41341,0 0.81649,-0.10852 0.40824,-0.113688 0.81132,-0.335896 v 0.878497 q -0.39791,0.186034 -0.82682,0.279052 -0.42375,0.09302 -0.90434,0.09302 -1.30741,0 -2.07739,-0.821653 -0.76997,-0.821652 -0.76997,-2.216912 0,-1.415929 0.77514,-2.227247 0.78031,-0.811317 2.13423,-0.811317 0.43925,0 0.85783,0.09302 0.41858,0.08785 0.81132,0.268717 z"
           id="path1564" />
        <path
           d="m 166.46781,34.417067 v 1.643306 h 1.95853 v 0.73897 h -1.95853 v 3.141917 q 0,0.707965 0.19121,0.909503 0.19637,0.201537 0.79064,0.201537 h 0.97668 v 0.795815 h -0.97668 q -1.1007,0 -1.51928,-0.408243 -0.41858,-0.41341 -0.41858,-1.498612 v -3.141917 h -0.69763 v -0.73897 h 0.69763 v -1.643306 z"
           id="path1566" />
        <path
           d="m 174.12624,34.990674 v 5.999615 h 1.2609 q 1.59679,0 2.33576,-0.723468 0.74414,-0.723468 0.74414,-2.284091 0,-1.550288 -0.74414,-2.268588 -0.73897,-0.723468 -2.33576,-0.723468 z m -1.04386,-0.857826 h 2.14456 q 2.24275,0 3.29178,0.93534 1.04903,0.930173 1.04903,2.914542 0,1.994704 -1.0542,2.930044 -1.0542,0.935341 -3.28661,0.935341 h -2.14456 z"
           id="path1568" />
        <path
           d="m 186.14097,38.716533 v 0.465086 h -4.37181 q 0.062,0.981849 0.58911,1.498612 0.53226,0.511595 1.47794,0.511595 0.54777,0 1.05936,-0.134358 0.51676,-0.134358 1.02319,-0.403075 v 0.899167 q -0.51159,0.21704 -1.04903,0.330728 -0.53743,0.113688 -1.09037,0.113688 -1.38492,0 -2.19624,-0.80615 -0.80615,-0.80615 -0.80615,-2.180738 0,-1.421098 0.76481,-2.253086 0.76998,-0.837155 2.07222,-0.837155 1.16788,0 1.84484,0.754473 0.68213,0.749306 0.68213,2.041213 z m -0.95084,-0.279052 q -0.0103,-0.780312 -0.43925,-1.245398 -0.42375,-0.465086 -1.12654,-0.465086 -0.79582,0 -1.27641,0.449583 -0.47542,0.449584 -0.54777,1.266069 z"
           id="path1570" />
        <path
           d="m 191.39128,36.230904 v 0.899167 q -0.40307,-0.206705 -0.83716,-0.310057 -0.43408,-0.103353 -0.89916,-0.103353 -0.70797,0 -1.06453,0.217041 -0.3514,0.21704 -0.3514,0.651121 0,0.330728 0.25321,0.52193 0.25322,0.186034 1.01802,0.356566 l 0.32556,0.07235 q 1.01286,0.21704 1.4366,0.614948 0.42892,0.392739 0.42892,1.100704 0,0.80615 -0.64079,1.276404 -0.63562,0.470254 -1.75182,0.470254 -0.46509,0 -0.97152,-0.09302 -0.50126,-0.08785 -1.05936,-0.268717 v -0.981849 q 0.5271,0.273884 1.03869,0.41341 0.5116,0.134358 1.01286,0.134358 0.67179,0 1.03352,-0.227375 0.36174,-0.232543 0.36174,-0.651121 0,-0.387572 -0.26355,-0.594277 -0.25838,-0.206705 -1.14205,-0.397908 l -0.33073,-0.07751 q -0.88366,-0.186034 -1.2764,-0.568439 -0.39274,-0.387572 -0.39274,-1.059363 0,-0.816485 0.57877,-1.260901 0.57878,-0.444416 1.64331,-0.444416 0.5271,0 0.99218,0.07751 0.46509,0.07751 0.85783,0.232543 z"
           id="path1572" />
        <path
           d="m 197.38056,36.282581 v 0.888831 q -0.40308,-0.222207 -0.81132,-0.330728 -0.40308,-0.113687 -0.81649,-0.113687 -0.925,0 -1.4366,0.589109 -0.51159,0.583942 -0.51159,1.643305 0,1.059364 0.51159,1.648473 0.5116,0.583942 1.4366,0.583942 0.41341,0 0.81649,-0.10852 0.40824,-0.113688 0.81132,-0.335896 v 0.878497 q -0.39791,0.186034 -0.82682,0.279052 -0.42375,0.09302 -0.90434,0.09302 -1.30741,0 -2.07738,-0.821653 -0.76998,-0.821652 -0.76998,-2.216912 0,-1.415929 0.77514,-2.227247 0.78032,-0.811317 2.13423,-0.811317 0.43925,0 0.85783,0.09302 0.41858,0.08785 0.81132,0.268717 z"
           id="path1574" />
        <path
           d="m 202.38799,36.949205 q -0.16019,-0.09302 -0.3514,-0.134359 -0.18603,-0.04651 -0.41341,-0.04651 -0.80615,0 -1.24023,0.527098 -0.42891,0.52193 -0.42891,1.503779 v 3.0489 h -0.95601 v -5.787742 h 0.95601 v 0.899167 q 0.29972,-0.527098 0.78031,-0.780312 0.48059,-0.258381 1.16788,-0.258381 0.0982,0 0.21705,0.0155 0.11885,0.01034 0.26354,0.03617 z"
           id="path1576" />
        <path
           d="m 203.38534,36.060373 h 0.95084 v 5.787742 h -0.95084 z m 0,-2.253086 h 0.95084 v 1.204057 h -0.95084 z"
           id="path1578" />
        <path
           d="m 207.24556,40.979953 v 3.069571 h -0.95601 v -7.989151 h 0.95601 v 0.878496 q 0.29972,-0.516762 0.75447,-0.764808 0.45992,-0.253214 1.09554,-0.253214 1.05419,0 1.71048,0.837155 0.66146,0.837156 0.66146,2.201409 0,1.364254 -0.66146,2.201409 -0.65629,0.837156 -1.71048,0.837156 -0.63562,0 -1.09554,-0.248046 -0.45475,-0.253214 -0.75447,-0.769977 z m 3.23493,-2.020542 q 0,-1.049028 -0.43408,-1.643305 -0.42891,-0.599445 -1.18338,-0.599445 -0.75448,0 -1.18856,0.599445 -0.42891,0.594277 -0.42891,1.643305 0,1.049029 0.42891,1.648473 0.43408,0.594277 1.18856,0.594277 0.75447,0 1.18338,-0.594277 0.43408,-0.599444 0.43408,-1.648473 z"
           id="path1580" />
        <path
           d="m 213.98414,34.417067 v 1.643306 h 1.95853 v 0.73897 h -1.95853 v 3.141917 q 0,0.707965 0.1912,0.909503 0.19637,0.201537 0.79065,0.201537 h 0.97668 v 0.795815 h -0.97668 q -1.10071,0 -1.51928,-0.408243 -0.41858,-0.41341 -0.41858,-1.498612 v -3.141917 h -0.69763 v -0.73897 h 0.69763 v -1.643306 z"
           id="path1582" />
        <path
           d="m 217.19324,36.060373 h 0.95084 v 5.787742 h -0.95084 z m 0,-2.253086 h 0.95084 v 1.204057 h -0.95084 z"
           id="path1584" />
        <path
           d="m 222.37637,36.726997 q -0.76481,0 -1.20922,0.599444 -0.44442,0.594277 -0.44442,1.63297 0,1.038693 0.43925,1.638138 0.44441,0.594277 1.21439,0.594277 0.75964,0 1.20406,-0.599445 0.44441,-0.599444 0.44441,-1.63297 0,-1.028357 -0.44441,-1.627802 -0.44442,-0.604612 -1.20406,-0.604612 z m 0,-0.80615 q 1.24023,0 1.9482,0.80615 0.70796,0.806149 0.70796,2.232414 0,1.421098 -0.70796,2.232415 -0.70797,0.80615 -1.9482,0.80615 -1.2454,0 -1.95336,-0.80615 -0.7028,-0.811317 -0.7028,-2.232415 0,-1.426265 0.7028,-2.232414 0.70796,-0.80615 1.95336,-0.80615 z"
           id="path1586" />
        <path
           d="m 231.41972,38.354799 v 3.493316 h -0.95085 v -3.46231 q 0,-0.821653 -0.32039,-1.229895 -0.32039,-0.408243 -0.96118,-0.408243 -0.76997,0 -1.21439,0.490925 -0.44442,0.490924 -0.44442,1.338415 v 3.271108 h -0.95601 v -5.787742 h 0.95601 v 0.899167 q 0.34107,-0.521931 0.80099,-0.780312 0.46508,-0.258381 1.0697,-0.258381 0.99735,0 1.50894,0.620115 0.5116,0.614948 0.5116,1.813837 z"
           id="path1588" />
      </g>
    </g>
    <g
       id="g1344">
      <path
         id="rect833-3-9-2"
         style="fill:none;stroke:#000000;stroke-width:2.64583;stroke-miterlimit:4;stroke-dasharray:none;stroke-opacity:1"
         d="m 113.77084,173.30208 h 142.875 v 16.82152 h -142.875 z" />
      <g
         aria-label="Product Name and Price

"
         transform="translate(-7.1389456,143.81021)"
         id="text856-1-0"
         style="font-style:normal;font-weight:normal;font-size:10.5833px;line-height:125%;font-family:sans-serif;letter-spacing:0px;word-spacing:0px;white-space:pre;shape-inside:url(#rect858-5-7);fill:#000000;fill-opacity:1;stroke:none;stroke-width:0.264583px;stroke-linecap:butt;stroke-linejoin:miter;stroke-opacity:1">
        <path
           d="m 130.57865,34.990674 v 2.899039 h 1.31257 q 0.72864,0 1.12655,-0.377237 0.3979,-0.377237 0.3979,-1.074867 0,-0.692462 -0.3979,-1.069698 -0.39791,-0.377237 -1.12655,-0.377237 z m -1.04386,-0.857826 h 2.35643 q 1.29708,0 1.95854,0.589109 0.66662,0.583942 0.66662,1.715652 0,1.142046 -0.66662,1.725988 -0.66146,0.583942 -1.95854,0.583942 h -1.31257 v 3.100576 h -1.04386 z"
           id="path1514" />
        <path
           d="m 139.04322,36.949205 q -0.1602,-0.09302 -0.3514,-0.134359 -0.18603,-0.04651 -0.41341,-0.04651 -0.80615,0 -1.24023,0.527098 -0.42891,0.52193 -0.42891,1.503779 v 3.0489 h -0.95601 v -5.787742 h 0.95601 v 0.899167 q 0.29972,-0.527098 0.78031,-0.780312 0.48059,-0.258381 1.16788,-0.258381 0.0982,0 0.21704,0.0155 0.11886,0.01034 0.26355,0.03617 z"
           id="path1516" />
        <path
           d="m 142.05078,36.726997 q -0.76481,0 -1.20923,0.599444 -0.44441,0.594277 -0.44441,1.63297 0,1.038693 0.43925,1.638138 0.44441,0.594277 1.21439,0.594277 0.75964,0 1.20406,-0.599445 0.44441,-0.599444 0.44441,-1.63297 0,-1.028357 -0.44441,-1.627802 -0.44442,-0.604612 -1.20406,-0.604612 z m 0,-0.80615 q 1.24023,0 1.94819,0.80615 0.70797,0.806149 0.70797,2.232414 0,1.421098 -0.70797,2.232415 -0.70796,0.80615 -1.94819,0.80615 -1.2454,0 -1.95336,-0.80615 -0.7028,-0.811317 -0.7028,-2.232415 0,-1.426265 0.7028,-2.232414 0.70796,-0.80615 1.95336,-0.80615 z"
           id="path1518" />
        <path
           d="m 150.09161,36.938869 v -3.131582 h 0.95084 v 8.040828 h -0.95084 v -0.868162 q -0.29973,0.516763 -0.75965,0.769977 -0.45475,0.248046 -1.09553,0.248046 -1.04903,0 -1.71049,-0.837156 -0.65628,-0.837155 -0.65628,-2.201409 0,-1.364253 0.65628,-2.201409 0.66146,-0.837155 1.71049,-0.837155 0.64078,0 1.09553,0.253214 0.45992,0.248046 0.75965,0.764808 z m -3.24011,2.020542 q 0,1.049029 0.42892,1.648473 0.43408,0.594277 1.18855,0.594277 0.75447,0 1.18856,-0.594277 0.43408,-0.599444 0.43408,-1.648473 0,-1.049028 -0.43408,-1.643305 -0.43409,-0.599445 -1.18856,-0.599445 -0.75447,0 -1.18855,0.599445 -0.42892,0.594277 -0.42892,1.643305 z"
           id="path1520" />
        <path
           d="m 152.90279,39.564024 v -3.503651 h 0.95085 v 3.467477 q 0,0.821653 0.32039,1.235063 0.32039,0.408243 0.96118,0.408243 0.76998,0 1.21439,-0.490925 0.44959,-0.490924 0.44959,-1.338415 v -3.281443 h 0.95084 v 5.787742 h -0.95084 v -0.888832 q -0.34624,0.527098 -0.80615,0.785479 -0.45476,0.253214 -1.05937,0.253214 -0.99735,0 -1.51411,-0.620115 -0.51677,-0.620116 -0.51677,-1.813837 z m 2.39262,-3.643177 z"
           id="path1522" />
        <path
           d="m 163.87367,36.282581 v 0.888831 q -0.40308,-0.222207 -0.81132,-0.330728 -0.40308,-0.113687 -0.81649,-0.113687 -0.925,0 -1.4366,0.589109 -0.51159,0.583942 -0.51159,1.643305 0,1.059364 0.51159,1.648473 0.5116,0.583942 1.4366,0.583942 0.41341,0 0.81649,-0.10852 0.40824,-0.113688 0.81132,-0.335896 v 0.878497 q -0.39791,0.186034 -0.82682,0.279052 -0.42375,0.09302 -0.90434,0.09302 -1.30741,0 -2.07739,-0.821653 -0.76997,-0.821652 -0.76997,-2.216912 0,-1.415929 0.77514,-2.227247 0.78031,-0.811317 2.13423,-0.811317 0.43925,0 0.85783,0.09302 0.41858,0.08785 0.81132,0.268717 z"
           id="path1524" />
        <path
           d="m 166.46781,34.417067 v 1.643306 h 1.95853 v 0.73897 h -1.95853 v 3.141917 q 0,0.707965 0.19121,0.909503 0.19637,0.201537 0.79064,0.201537 h 0.97668 v 0.795815 h -0.97668 q -1.1007,0 -1.51928,-0.408243 -0.41858,-0.41341 -0.41858,-1.498612 v -3.141917 h -0.69763 v -0.73897 h 0.69763 v -1.643306 z"
           id="path1526" />
        <path
           d="m 173.08238,34.132848 h 1.40559 l 3.42097,6.454366 v -6.454366 h 1.01285 v 7.715267 h -1.40559 l -3.42097,-6.454366 v 6.454366 h -1.01285 z"
           id="path1528" />
        <path
           d="m 183.58816,38.938741 q -1.15238,0 -1.5968,0.263549 -0.44441,0.263549 -0.44441,0.899167 0,0.506427 0.33073,0.80615 0.33589,0.294554 0.9095,0.294554 0.79065,0 1.26607,-0.558103 0.48059,-0.563272 0.48059,-1.493444 v -0.211873 z m 1.89652,-0.39274 v 3.302114 h -0.95084 v -0.878497 q -0.32556,0.527098 -0.81132,0.780312 -0.48576,0.248046 -1.18855,0.248046 -0.88884,0 -1.41593,-0.496092 -0.52193,-0.50126 -0.52193,-1.338416 0,-0.976681 0.65112,-1.472773 0.65629,-0.496092 1.95336,-0.496092 h 1.33325 v -0.09302 q 0,-0.656288 -0.43408,-1.012855 -0.42892,-0.361733 -1.20923,-0.361733 -0.49609,0 -0.96634,0.118855 -0.47026,0.118855 -0.90434,0.356566 v -0.878496 q 0.52193,-0.201538 1.01286,-0.299723 0.49092,-0.103352 0.95601,-0.103352 1.25573,0 1.87585,0.651121 0.62011,0.651121 0.62011,1.974033 z"
           id="path1530" />
        <path
           d="m 191.94938,37.171412 q 0.35657,-0.640785 0.85266,-0.945675 0.49609,-0.30489 1.16788,-0.30489 0.90434,0 1.39526,0.635618 0.49093,0.63045 0.49093,1.798334 v 3.493316 h -0.95601 v -3.46231 q 0,-0.831988 -0.29456,-1.235063 -0.29455,-0.403075 -0.89917,-0.403075 -0.73897,0 -1.16788,0.490925 -0.42891,0.490924 -0.42891,1.338415 v 3.271108 h -0.95601 v -3.46231 q 0,-0.837156 -0.29456,-1.235063 -0.29455,-0.403075 -0.9095,-0.403075 -0.72864,0 -1.15755,0.496092 -0.42891,0.490925 -0.42891,1.333248 v 3.271108 h -0.95601 v -5.787742 h 0.95601 v 0.899167 q 0.32556,-0.532266 0.78031,-0.785479 0.45475,-0.253214 1.08003,-0.253214 0.63045,0 1.0697,0.320393 0.44442,0.320393 0.65629,0.930172 z"
           id="path1532" />
        <path
           d="m 202.70321,38.716533 v 0.465086 h -4.37181 q 0.062,0.981849 0.58911,1.498612 0.53226,0.511595 1.47794,0.511595 0.54777,0 1.05936,-0.134358 0.51676,-0.134358 1.02319,-0.403075 v 0.899167 q -0.51159,0.21704 -1.04903,0.330728 -0.53743,0.113688 -1.09037,0.113688 -1.38492,0 -2.19624,-0.80615 -0.80615,-0.80615 -0.80615,-2.180738 0,-1.421098 0.76481,-2.253086 0.76998,-0.837155 2.07222,-0.837155 1.16788,0 1.84484,0.754473 0.68213,0.749306 0.68213,2.041213 z m -0.95084,-0.279052 q -0.0103,-0.780312 -0.43925,-1.245398 -0.42375,-0.465086 -1.12654,-0.465086 -0.79582,0 -1.27641,0.449583 -0.47542,0.449584 -0.54777,1.266069 z"
           id="path1534" />
        <path
           d="m 210.25828,38.938741 q -1.15238,0 -1.5968,0.263549 -0.44441,0.263549 -0.44441,0.899167 0,0.506427 0.33073,0.80615 0.33589,0.294554 0.9095,0.294554 0.79065,0 1.26607,-0.558103 0.48059,-0.563272 0.48059,-1.493444 v -0.211873 z m 1.89652,-0.39274 v 3.302114 h -0.95084 v -0.878497 q -0.32556,0.527098 -0.81132,0.780312 -0.48576,0.248046 -1.18855,0.248046 -0.88884,0 -1.41593,-0.496092 -0.52193,-0.50126 -0.52193,-1.338416 0,-0.976681 0.65112,-1.472773 0.65629,-0.496092 1.95336,-0.496092 h 1.33325 v -0.09302 q 0,-0.656288 -0.43408,-1.012855 -0.42892,-0.361733 -1.20923,-0.361733 -0.49609,0 -0.96634,0.118855 -0.47026,0.118855 -0.90434,0.356566 v -0.878496 q 0.52193,-0.201538 1.01286,-0.299723 0.49092,-0.103352 0.95601,-0.103352 1.25573,0 1.87585,0.651121 0.62011,0.651121 0.62011,1.974033 z"
           id="path1536" />
        <path
           d="m 218.92439,38.354799 v 3.493316 h -0.95084 v -3.46231 q 0,-0.821653 -0.32039,-1.229895 -0.32039,-0.408243 -0.96118,-0.408243 -0.76998,0 -1.21439,0.490925 -0.44442,0.490924 -0.44442,1.338415 v 3.271108 h -0.95601 v -5.787742 h 0.95601 v 0.899167 q 0.34106,-0.521931 0.80098,-0.780312 0.46509,-0.258381 1.0697,-0.258381 0.99735,0 1.50895,0.620115 0.51159,0.614948 0.51159,1.813837 z"
           id="path1538" />
        <path
           d="m 224.62946,36.938869 v -3.131582 h 0.95084 v 8.040828 h -0.95084 v -0.868162 q -0.29973,0.516763 -0.75965,0.769977 -0.45475,0.248046 -1.09553,0.248046 -1.04903,0 -1.71049,-0.837156 -0.65629,-0.837155 -0.65629,-2.201409 0,-1.364253 0.65629,-2.201409 0.66146,-0.837155 1.71049,-0.837155 0.64078,0 1.09553,0.253214 0.45992,0.248046 0.75965,0.764808 z m -3.24011,2.020542 q 0,1.049029 0.42892,1.648473 0.43408,0.594277 1.18855,0.594277 0.75447,0 1.18855,-0.594277 0.43409,-0.599444 0.43409,-1.648473 0,-1.049028 -0.43409,-1.643305 -0.43408,-0.599445 -1.18855,-0.599445 -0.75447,0 -1.18855,0.599445 -0.42892,0.594277 -0.42892,1.643305 z"
           id="path1540" />
        <path
           d="m 231.98816,34.990674 v 2.899039 h 1.31257 q 0.72864,0 1.12654,-0.377237 0.39791,-0.377237 0.39791,-1.074867 0,-0.692462 -0.39791,-1.069698 -0.3979,-0.377237 -1.12654,-0.377237 z m -1.04387,-0.857826 h 2.35644 q 1.29708,0 1.95853,0.589109 0.66663,0.583942 0.66663,1.715652 0,1.142046 -0.66663,1.725988 -0.66145,0.583942 -1.95853,0.583942 h -1.31257 v 3.100576 h -1.04387 z"
           id="path1542" />
        <path
           d="m 240.45273,36.949205 q -0.1602,-0.09302 -0.3514,-0.134359 -0.18604,-0.04651 -0.41341,-0.04651 -0.80615,0 -1.24023,0.527098 -0.42892,0.52193 -0.42892,1.503779 v 3.0489 h -0.95601 v -5.787742 h 0.95601 v 0.899167 q 0.29973,-0.527098 0.78032,-0.780312 0.48059,-0.258381 1.16788,-0.258381 0.0982,0 0.21704,0.0155 0.11886,0.01034 0.26355,0.03617 z"
           id="path1544" />
        <path
           d="m 241.45008,36.060373 h 0.95084 v 5.787742 h -0.95084 z m 0,-2.253086 h 0.95084 v 1.204057 h -0.95084 z"
           id="path1546" />
        <path
           d="m 248.55556,36.282581 v 0.888831 q -0.40307,-0.222207 -0.81131,-0.330728 -0.40308,-0.113687 -0.81649,-0.113687 -0.925,0 -1.4366,0.589109 -0.51159,0.583942 -0.51159,1.643305 0,1.059364 0.51159,1.648473 0.5116,0.583942 1.4366,0.583942 0.41341,0 0.81649,-0.10852 0.40824,-0.113688 0.81131,-0.335896 v 0.878497 q -0.3979,0.186034 -0.82682,0.279052 -0.42374,0.09302 -0.90433,0.09302 -1.30741,0 -2.07739,-0.821653 -0.76997,-0.821652 -0.76997,-2.216912 0,-1.415929 0.77514,-2.227247 0.78031,-0.811317 2.13423,-0.811317 0.43925,0 0.85783,0.09302 0.41857,0.08785 0.81131,0.268717 z"
           id="path1548" />
        <path
           d="m 255.15979,38.716533 v 0.465086 h -4.37181 q 0.062,0.981849 0.58911,1.498612 0.53226,0.511595 1.47794,0.511595 0.54777,0 1.05936,-0.134358 0.51677,-0.134358 1.02319,-0.403075 v 0.899167 q -0.51159,0.21704 -1.04902,0.330728 -0.53744,0.113688 -1.09037,0.113688 -1.38493,0 -2.19625,-0.80615 -0.80615,-0.80615 -0.80615,-2.180738 0,-1.421098 0.76481,-2.253086 0.76998,-0.837155 2.07222,-0.837155 1.16789,0 1.84484,0.754473 0.68213,0.749306 0.68213,2.041213 z m -0.95084,-0.279052 q -0.0103,-0.780312 -0.43925,-1.245398 -0.42375,-0.465086 -1.12654,-0.465086 -0.79582,0 -1.27641,0.449583 -0.47542,0.449584 -0.54777,1.266069 z"
           id="path1550" />
      </g>
    </g>
    <g
       id="g1380">
      <path
         id="rect833-6-0"
         style="fill:none;stroke:#000000;stroke-width:2.64583;stroke-miterlimit:4;stroke-dasharray:none;stroke-opacity:1"
         d="m 11.906248,252.67708 h 63.500004 v 63.50001 H 11.906248 Z" />
      <g
         aria-label="Product
Logo"
         transform="translate(-1.5352545,241.60872)"
         id="text835-2-6"
         style="font-style:normal;font-weight:normal;font-size:10.5833px;line-height:125%;font-family:sans-serif;letter-spacing:0px;word-spacing:0px;white-space:pre;shape-inside:url(#rect837-3-9);fill:#000000;fill-opacity:1;stroke:none;stroke-width:0.264583px;stroke-linecap:butt;stroke-linejoin:miter;stroke-opacity:1">
        <path
           d="m 26.789585,32.266065 v 2.899038 h 1.312577 q 0.728635,0 1.126543,-0.377237 0.397907,-0.377236 0.397907,-1.074866 0,-0.692462 -0.397907,-1.069699 -0.397908,-0.377236 -1.126543,-0.377236 z m -1.043861,-0.857826 h 2.356438 q 1.297074,0 1.958531,0.589109 0.666623,0.583942 0.666623,1.715652 0,1.142046 -0.666623,1.725987 -0.661457,0.583942 -1.958531,0.583942 h -1.312577 v 3.100576 h -1.043861 z"
           id="path1490" />
        <path
           d="m 35.254157,34.224595 q -0.160196,-0.09302 -0.351398,-0.134358 -0.186035,-0.04651 -0.41341,-0.04651 -0.80615,0 -1.240231,0.527098 -0.428913,0.52193 -0.428913,1.50378 v 3.048899 h -0.956011 v -5.787742 h 0.956011 v 0.899167 q 0.299723,-0.527098 0.780312,-0.780311 0.480589,-0.258382 1.167883,-0.258382 0.09819,0 0.217041,0.0155 0.118855,0.01034 0.263549,0.03617 z"
           id="path1492" />
        <path
           d="m 38.261716,34.002387 q -0.764809,0 -1.209225,0.599445 -0.444416,0.594277 -0.444416,1.63297 0,1.038693 0.439249,1.638138 0.444416,0.594277 1.214392,0.594277 0.759641,0 1.204057,-0.599445 0.444416,-0.599445 0.444416,-1.63297 0,-1.028358 -0.444416,-1.627802 -0.444416,-0.604613 -1.204057,-0.604613 z m 0,-0.80615 q 1.24023,0 1.948195,0.80615 0.707965,0.80615 0.707965,2.232415 0,1.421097 -0.707965,2.232415 -0.707965,0.80615 -1.948195,0.80615 -1.245398,0 -1.953363,-0.80615 -0.702797,-0.811318 -0.702797,-2.232415 0,-1.426265 0.702797,-2.232415 0.707965,-0.80615 1.953363,-0.80615 z"
           id="path1494" />
        <path
           d="m 46.302544,34.21426 v -3.131582 h 0.950843 v 8.040827 h -0.950843 v -0.868161 q -0.299723,0.516763 -0.759642,0.769976 -0.454751,0.248047 -1.095536,0.248047 -1.049029,0 -1.710485,-0.837156 -0.656288,-0.837156 -0.656288,-2.201409 0,-1.364253 0.656288,-2.201409 0.661456,-0.837156 1.710485,-0.837156 0.640785,0 1.095536,0.253214 0.459919,0.248046 0.759642,0.764809 z m -3.240102,2.020542 q 0,1.049028 0.428913,1.648473 0.43408,0.594277 1.188554,0.594277 0.754473,0 1.188554,-0.594277 0.434081,-0.599445 0.434081,-1.648473 0,-1.049028 -0.434081,-1.643305 -0.434081,-0.599445 -1.188554,-0.599445 -0.754474,0 -1.188554,0.599445 -0.428913,0.594277 -0.428913,1.643305 z"
           id="path1496" />
        <path
           d="m 49.113732,36.839414 v -3.503651 h 0.950844 v 3.467478 q 0,0.821653 0.320393,1.235063 0.320392,0.408242 0.961178,0.408242 0.769976,0 1.214392,-0.490924 0.449584,-0.490925 0.449584,-1.338416 v -3.281443 h 0.950843 v 5.787742 h -0.950843 v -0.888831 q -0.346231,0.527097 -0.80615,0.785479 -0.454751,0.253214 -1.059363,0.253214 -0.997352,0 -1.514115,-0.620116 -0.516763,-0.620115 -0.516763,-1.813837 z m 2.392612,-3.643177 z"
           id="path1498" />
        <path
           d="m 60.084603,33.557971 v 0.888832 q -0.403075,-0.222208 -0.811317,-0.330728 -0.403075,-0.113688 -0.816485,-0.113688 -0.925006,0 -1.436601,0.58911 -0.511595,0.583941 -0.511595,1.643305 0,1.059363 0.511595,1.648473 0.511595,0.583942 1.436601,0.583942 0.41341,0 0.816485,-0.10852 0.408242,-0.113688 0.811317,-0.335896 v 0.878496 q -0.397907,0.186035 -0.82682,0.279052 -0.423746,0.09302 -0.904335,0.09302 -1.307409,0 -2.077386,-0.821653 -0.769976,-0.821653 -0.769976,-2.216912 0,-1.41593 0.775144,-2.227247 0.780311,-0.811318 2.13423,-0.811318 0.439248,0 0.857826,0.09302 0.418577,0.08785 0.811317,0.268716 z"
           id="path1500" />
        <path
           d="m 62.678751,31.692458 v 1.643305 h 1.95853 v 0.738971 h -1.95853 v 3.141917 q 0,0.707965 0.191202,0.909502 0.19637,0.201538 0.790647,0.201538 h 0.976681 v 0.795814 H 63.6606 q -1.100705,0 -1.519283,-0.408242 -0.418577,-0.41341 -0.418577,-1.498612 v -3.141917 h -0.69763 v -0.738971 h 0.69763 v -1.643305 z"
           id="path1502" />
        <path
           d="m 25.745724,44.637365 h 1.043861 v 6.83677 h 3.756865 v 0.878496 h -4.800726 z"
           id="path1504" />
        <path
           d="m 33.657361,47.231513 q -0.764809,0 -1.209225,0.599445 -0.444416,0.594277 -0.444416,1.63297 0,1.038693 0.439248,1.638138 0.444416,0.594277 1.214393,0.594277 0.759641,0 1.204057,-0.599445 0.444416,-0.599445 0.444416,-1.63297 0,-1.028358 -0.444416,-1.627802 -0.444416,-0.604613 -1.204057,-0.604613 z m 0,-0.80615 q 1.24023,0 1.948195,0.80615 0.707965,0.80615 0.707965,2.232415 0,1.421097 -0.707965,2.232415 -0.707965,0.806149 -1.948195,0.806149 -1.245398,0 -1.953363,-0.806149 -0.702797,-0.811318 -0.702797,-2.232415 0,-1.426265 0.702797,-2.232415 0.707965,-0.80615 1.953363,-0.80615 z"
           id="path1506" />
        <path
           d="m 41.698188,49.391581 q 0,-1.033525 -0.428913,-1.601964 -0.423746,-0.568439 -1.193722,-0.568439 -0.764809,0 -1.193722,0.568439 -0.423745,0.568439 -0.423745,1.601964 0,1.028358 0.423745,1.596797 0.428913,0.568439 1.193722,0.568439 0.769976,0 1.193722,-0.568439 0.428913,-0.568439 0.428913,-1.596797 z m 0.950843,2.24275 q 0,1.477941 -0.656288,2.196242 -0.656289,0.723467 -2.010207,0.723467 -0.50126,0 -0.945676,-0.07751 -0.444416,-0.07235 -0.862994,-0.227376 v -0.925005 q 0.418578,0.227376 0.826821,0.335896 0.408242,0.10852 0.831988,0.10852 0.93534,0 1.400426,-0.490924 0.465087,-0.485757 0.465087,-1.472774 v -0.470254 q -0.294555,0.511595 -0.754474,0.764809 -0.459919,0.253213 -1.100704,0.253213 -1.064531,0 -1.715652,-0.811317 -0.651121,-0.811317 -0.651121,-2.149733 0,-1.343583 0.651121,-2.1549 0.651121,-0.811318 1.715652,-0.811318 0.640785,0 1.100704,0.253214 0.459919,0.253214 0.754474,0.764809 v -0.878497 h 0.950843 z"
           id="path1508" />
        <path
           d="m 46.850312,47.231513 q -0.764808,0 -1.209224,0.599445 -0.444416,0.594277 -0.444416,1.63297 0,1.038693 0.439248,1.638138 0.444416,0.594277 1.214392,0.594277 0.759642,0 1.204057,-0.599445 0.444416,-0.599445 0.444416,-1.63297 0,-1.028358 -0.444416,-1.627802 -0.444415,-0.604613 -1.204057,-0.604613 z m 0,-0.80615 q 1.240231,0 1.948196,0.80615 0.707965,0.80615 0.707965,2.232415 0,1.421097 -0.707965,2.232415 -0.707965,0.806149 -1.948196,0.806149 -1.245398,0 -1.953363,-0.806149 -0.702797,-0.811318 -0.702797,-2.232415 0,-1.426265 0.702797,-2.232415 0.707965,-0.80615 1.953363,-0.80615 z"
           id="path1510" />
      </g>
    </g>
    <g
       id="g1372">
      <path
         id="rect833-3-9-26"
         style="fill:none;stroke:#000000;stroke-width:2.64583;stroke-miterlimit:4;stroke-dasharray:none;stroke-opacity:1"
         d="m 113.77084,279.13544 h 142.875 v 37.04167 h -142.875 z" />
      <g
         aria-label="Product Description
"
         transform="translate(4.7310893,258.72785)"
         id="text856-1-1"
         style="font-style:normal;font-weight:normal;font-size:10.5833px;line-height:125%;font-family:sans-serif;letter-spacing:0px;word-spacing:0px;white-space:pre;shape-inside:url(#rect858-5-3);fill:#000000;fill-opacity:1;stroke:none;stroke-width:0.264583px;stroke-linecap:butt;stroke-linejoin:miter;stroke-opacity:1">
        <path
           d="m 130.57865,34.990674 v 2.899039 h 1.31257 q 0.72864,0 1.12655,-0.377237 0.3979,-0.377237 0.3979,-1.074867 0,-0.692462 -0.3979,-1.069698 -0.39791,-0.377237 -1.12655,-0.377237 z m -1.04386,-0.857826 h 2.35643 q 1.29708,0 1.95854,0.589109 0.66662,0.583942 0.66662,1.715652 0,1.142046 -0.66662,1.725988 -0.66146,0.583942 -1.95854,0.583942 h -1.31257 v 3.100576 h -1.04386 z"
           id="path1452" />
        <path
           d="m 139.04322,36.949205 q -0.1602,-0.09302 -0.3514,-0.134359 -0.18603,-0.04651 -0.41341,-0.04651 -0.80615,0 -1.24023,0.527098 -0.42891,0.52193 -0.42891,1.503779 v 3.0489 h -0.95601 v -5.787742 h 0.95601 v 0.899167 q 0.29972,-0.527098 0.78031,-0.780312 0.48059,-0.258381 1.16788,-0.258381 0.0982,0 0.21704,0.0155 0.11886,0.01034 0.26355,0.03617 z"
           id="path1454" />
        <path
           d="m 142.05078,36.726997 q -0.76481,0 -1.20923,0.599444 -0.44441,0.594277 -0.44441,1.63297 0,1.038693 0.43925,1.638138 0.44441,0.594277 1.21439,0.594277 0.75964,0 1.20406,-0.599445 0.44441,-0.599444 0.44441,-1.63297 0,-1.028357 -0.44441,-1.627802 -0.44442,-0.604612 -1.20406,-0.604612 z m 0,-0.80615 q 1.24023,0 1.94819,0.80615 0.70797,0.806149 0.70797,2.232414 0,1.421098 -0.70797,2.232415 -0.70796,0.80615 -1.94819,0.80615 -1.2454,0 -1.95336,-0.80615 -0.7028,-0.811317 -0.7028,-2.232415 0,-1.426265 0.7028,-2.232414 0.70796,-0.80615 1.95336,-0.80615 z"
           id="path1456" />
        <path
           d="m 150.09161,36.938869 v -3.131582 h 0.95084 v 8.040828 h -0.95084 v -0.868162 q -0.29973,0.516763 -0.75965,0.769977 -0.45475,0.248046 -1.09553,0.248046 -1.04903,0 -1.71049,-0.837156 -0.65628,-0.837155 -0.65628,-2.201409 0,-1.364253 0.65628,-2.201409 0.66146,-0.837155 1.71049,-0.837155 0.64078,0 1.09553,0.253214 0.45992,0.248046 0.75965,0.764808 z m -3.24011,2.020542 q 0,1.049029 0.42892,1.648473 0.43408,0.594277 1.18855,0.594277 0.75447,0 1.18856,-0.594277 0.43408,-0.599444 0.43408,-1.648473 0,-1.049028 -0.43408,-1.643305 -0.43409,-0.599445 -1.18856,-0.599445 -0.75447,0 -1.18855,0.599445 -0.42892,0.594277 -0.42892,1.643305 z"
           id="path1458" />
        <path
           d="m 152.90279,39.564024 v -3.503651 h 0.95085 v 3.467477 q 0,0.821653 0.32039,1.235063 0.32039,0.408243 0.96118,0.408243 0.76998,0 1.21439,-0.490925 0.44959,-0.490924 0.44959,-1.338415 v -3.281443 h 0.95084 v 5.787742 h -0.95084 v -0.888832 q -0.34624,0.527098 -0.80615,0.785479 -0.45476,0.253214 -1.05937,0.253214 -0.99735,0 -1.51411,-0.620115 -0.51677,-0.620116 -0.51677,-1.813837 z m 2.39262,-3.643177 z"
           id="path1460" />
        <path
           d="m 163.87367,36.282581 v 0.888831 q -0.40308,-0.222207 -0.81132,-0.330728 -0.40308,-0.113687 -0.81649,-0.113687 -0.925,0 -1.4366,0.589109 -0.51159,0.583942 -0.51159,1.643305 0,1.059364 0.51159,1.648473 0.5116,0.583942 1.4366,0.583942 0.41341,0 0.81649,-0.10852 0.40824,-0.113688 0.81132,-0.335896 v 0.878497 q -0.39791,0.186034 -0.82682,0.279052 -0.42375,0.09302 -0.90434,0.09302 -1.30741,0 -2.07739,-0.821653 -0.76997,-0.821652 -0.76997,-2.216912 0,-1.415929 0.77514,-2.227247 0.78031,-0.811317 2.13423,-0.811317 0.43925,0 0.85783,0.09302 0.41858,0.08785 0.81132,0.268717 z"
           id="path1462" />
        <path
           d="m 166.46781,34.417067 v 1.643306 h 1.95853 v 0.73897 h -1.95853 v 3.141917 q 0,0.707965 0.19121,0.909503 0.19637,0.201537 0.79064,0.201537 h 0.97668 v 0.795815 h -0.97668 q -1.1007,0 -1.51928,-0.408243 -0.41858,-0.41341 -0.41858,-1.498612 v -3.141917 h -0.69763 v -0.73897 h 0.69763 v -1.643306 z"
           id="path1464" />
        <path
           d="m 174.12624,34.990674 v 5.999615 h 1.2609 q 1.59679,0 2.33576,-0.723468 0.74414,-0.723468 0.74414,-2.284091 0,-1.550288 -0.74414,-2.268588 -0.73897,-0.723468 -2.33576,-0.723468 z m -1.04386,-0.857826 h 2.14456 q 2.24275,0 3.29178,0.93534 1.04903,0.930173 1.04903,2.914542 0,1.994704 -1.0542,2.930044 -1.0542,0.935341 -3.28661,0.935341 h -2.14456 z"
           id="path1466" />
        <path
           d="m 186.14097,38.716533 v 0.465086 h -4.37181 q 0.062,0.981849 0.58911,1.498612 0.53226,0.511595 1.47794,0.511595 0.54777,0 1.05936,-0.134358 0.51676,-0.134358 1.02319,-0.403075 v 0.899167 q -0.51159,0.21704 -1.04903,0.330728 -0.53743,0.113688 -1.09037,0.113688 -1.38492,0 -2.19624,-0.80615 -0.80615,-0.80615 -0.80615,-2.180738 0,-1.421098 0.76481,-2.253086 0.76998,-0.837155 2.07222,-0.837155 1.16788,0 1.84484,0.754473 0.68213,0.749306 0.68213,2.041213 z m -0.95084,-0.279052 q -0.0103,-0.780312 -0.43925,-1.245398 -0.42375,-0.465086 -1.12654,-0.465086 -0.79582,0 -1.27641,0.449583 -0.47542,0.449584 -0.54777,1.266069 z"
           id="path1468" />
        <path
           d="m 191.39128,36.230904 v 0.899167 q -0.40307,-0.206705 -0.83716,-0.310057 -0.43408,-0.103353 -0.89916,-0.103353 -0.70797,0 -1.06453,0.217041 -0.3514,0.21704 -0.3514,0.651121 0,0.330728 0.25321,0.52193 0.25322,0.186034 1.01802,0.356566 l 0.32556,0.07235 q 1.01286,0.21704 1.4366,0.614948 0.42892,0.392739 0.42892,1.100704 0,0.80615 -0.64079,1.276404 -0.63562,0.470254 -1.75182,0.470254 -0.46509,0 -0.97152,-0.09302 -0.50126,-0.08785 -1.05936,-0.268717 v -0.981849 q 0.5271,0.273884 1.03869,0.41341 0.5116,0.134358 1.01286,0.134358 0.67179,0 1.03352,-0.227375 0.36174,-0.232543 0.36174,-0.651121 0,-0.387572 -0.26355,-0.594277 -0.25838,-0.206705 -1.14205,-0.397908 l -0.33073,-0.07751 q -0.88366,-0.186034 -1.2764,-0.568439 -0.39274,-0.387572 -0.39274,-1.059363 0,-0.816485 0.57877,-1.260901 0.57878,-0.444416 1.64331,-0.444416 0.5271,0 0.99218,0.07751 0.46509,0.07751 0.85783,0.232543 z"
           id="path1470" />
        <path
           d="m 197.38056,36.282581 v 0.888831 q -0.40308,-0.222207 -0.81132,-0.330728 -0.40308,-0.113687 -0.81649,-0.113687 -0.925,0 -1.4366,0.589109 -0.51159,0.583942 -0.51159,1.643305 0,1.059364 0.51159,1.648473 0.5116,0.583942 1.4366,0.583942 0.41341,0 0.81649,-0.10852 0.40824,-0.113688 0.81132,-0.335896 v 0.878497 q -0.39791,0.186034 -0.82682,0.279052 -0.42375,0.09302 -0.90434,0.09302 -1.30741,0 -2.07738,-0.821653 -0.76998,-0.821652 -0.76998,-2.216912 0,-1.415929 0.77514,-2.227247 0.78032,-0.811317 2.13423,-0.811317 0.43925,0 0.85783,0.09302 0.41858,0.08785 0.81132,0.268717 z"
           id="path1472" />
        <path
           d="m 202.38799,36.949205 q -0.16019,-0.09302 -0.3514,-0.134359 -0.18603,-0.04651 -0.41341,-0.04651 -0.80615,0 -1.24023,0.527098 -0.42891,0.52193 -0.42891,1.503779 v 3.0489 h -0.95601 v -5.787742 h 0.95601 v 0.899167 q 0.29972,-0.527098 0.78031,-0.780312 0.48059,-0.258381 1.16788,-0.258381 0.0982,0 0.21705,0.0155 0.11885,0.01034 0.26354,0.03617 z"
           id="path1474" />
        <path
           d="m 203.38534,36.060373 h 0.95084 v 5.787742 h -0.95084 z m 0,-2.253086 h 0.95084 v 1.204057 h -0.95084 z"
           id="path1476" />
        <path
           d="m 207.24556,40.979953 v 3.069571 h -0.95601 v -7.989151 h 0.95601 v 0.878496 q 0.29972,-0.516762 0.75447,-0.764808 0.45992,-0.253214 1.09554,-0.253214 1.05419,0 1.71048,0.837155 0.66146,0.837156 0.66146,2.201409 0,1.364254 -0.66146,2.201409 -0.65629,0.837156 -1.71048,0.837156 -0.63562,0 -1.09554,-0.248046 -0.45475,-0.253214 -0.75447,-0.769977 z m 3.23493,-2.020542 q 0,-1.049028 -0.43408,-1.643305 -0.42891,-0.599445 -1.18338,-0.599445 -0.75448,0 -1.18856,0.599445 -0.42891,0.594277 -0.42891,1.643305 0,1.049029 0.42891,1.648473 0.43408,0.594277 1.18856,0.594277 0.75447,0 1.18338,-0.594277 0.43408,-0.599444 0.43408,-1.648473 z"
           id="path1478" />
        <path
           d="m 213.98414,34.417067 v 1.643306 h 1.95853 v 0.73897 h -1.95853 v 3.141917 q 0,0.707965 0.1912,0.909503 0.19637,0.201537 0.79065,0.201537 h 0.97668 v 0.795815 h -0.97668 q -1.10071,0 -1.51928,-0.408243 -0.41858,-0.41341 -0.41858,-1.498612 v -3.141917 h -0.69763 v -0.73897 h 0.69763 v -1.643306 z"
           id="path1480" />
        <path
           d="m 217.19324,36.060373 h 0.95084 v 5.787742 h -0.95084 z m 0,-2.253086 h 0.95084 v 1.204057 h -0.95084 z"
           id="path1482" />
        <path
           d="m 222.37637,36.726997 q -0.76481,0 -1.20922,0.599444 -0.44442,0.594277 -0.44442,1.63297 0,1.038693 0.43925,1.638138 0.44441,0.594277 1.21439,0.594277 0.75964,0 1.20406,-0.599445 0.44441,-0.599444 0.44441,-1.63297 0,-1.028357 -0.44441,-1.627802 -0.44442,-0.604612 -1.20406,-0.604612 z m 0,-0.80615 q 1.24023,0 1.9482,0.80615 0.70796,0.806149 0.70796,2.232414 0,1.421098 -0.70796,2.232415 -0.70797,0.80615 -1.9482,0.80615 -1.2454,0 -1.95336,-0.80615 -0.7028,-0.811317 -0.7028,-2.232415 0,-1.426265 0.7028,-2.232414 0.70796,-0.80615 1.95336,-0.80615 z"
           id="path1484" />
        <path
           d="m 231.41972,38.354799 v 3.493316 h -0.95085 v -3.46231 q 0,-0.821653 -0.32039,-1.229895 -0.32039,-0.408243 -0.96118,-0.408243 -0.76997,0 -1.21439,0.490925 -0.44442,0.490924 -0.44442,1.338415 v 3.271108 h -0.95601 v -5.787742 h 0.95601 v 0.899167 q 0.34107,-0.521931 0.80099,-0.780312 0.46508,-0.258381 1.0697,-0.258381 0.99735,0 1.50894,0.620115 0.5116,0.614948 0.5116,1.813837 z"
           id="path1486" />
      </g>
    </g>
    <g
       id="g1366">
      <path
         id="rect833-3-9-2-8"
         style="fill:none;stroke:#000000;stroke-width:2.64583;stroke-miterlimit:4;stroke-dasharray:none;stroke-opacity:1"
         d="m 113.77084,252.67708 h 142.875 v 16.82152 h -142.875 z" />
      <g
         aria-label="Product Name and Price

"
         transform="translate(-7.1389473,223.18521)"
         id="text856-1-0-7"
         style="font-style:normal;font-weight:normal;font-size:10.5833px;line-height:125%;font-family:sans-serif;letter-spacing:0px;word-spacing:0px;white-space:pre;shape-inside:url(#rect858-5-7-6);fill:#000000;fill-opacity:1;stroke:none;stroke-width:0.264583px;stroke-linecap:butt;stroke-linejoin:miter;stroke-opacity:1">
        <path
           d="m 130.57865,34.990674 v 2.899039 h 1.31257 q 0.72864,0 1.12655,-0.377237 0.3979,-0.377237 0.3979,-1.074867 0,-0.692462 -0.3979,-1.069698 -0.39791,-0.377237 -1.12655,-0.377237 z m -1.04386,-0.857826 h 2.35643 q 1.29708,0 1.95854,0.589109 0.66662,0.583942 0.66662,1.715652 0,1.142046 -0.66662,1.725988 -0.66146,0.583942 -1.95854,0.583942 h -1.31257 v 3.100576 h -1.04386 z"
           id="path1412" />
        <path
           d="m 139.04322,36.949205 q -0.1602,-0.09302 -0.3514,-0.134359 -0.18603,-0.04651 -0.41341,-0.04651 -0.80615,0 -1.24023,0.527098 -0.42891,0.52193 -0.42891,1.503779 v 3.0489 h -0.95601 v -5.787742 h 0.95601 v 0.899167 q 0.29972,-0.527098 0.78031,-0.780312 0.48059,-0.258381 1.16788,-0.258381 0.0982,0 0.21704,0.0155 0.11886,0.01034 0.26355,0.03617 z"
           id="path1414" />
        <path
           d="m 142.05078,36.726997 q -0.76481,0 -1.20923,0.599444 -0.44441,0.594277 -0.44441,1.63297 0,1.038693 0.43925,1.638138 0.44441,0.594277 1.21439,0.594277 0.75964,0 1.20406,-0.599445 0.44441,-0.599444 0.44441,-1.63297 0,-1.028357 -0.44441,-1.627802 -0.44442,-0.604612 -1.20406,-0.604612 z m 0,-0.80615 q 1.24023,0 1.94819,0.80615 0.70797,0.806149 0.70797,2.232414 0,1.421098 -0.70797,2.232415 -0.70796,0.80615 -1.94819,0.80615 -1.2454,0 -1.95336,-0.80615 -0.7028,-0.811317 -0.7028,-2.232415 0,-1.426265 0.7028,-2.232414 0.70796,-0.80615 1.95336,-0.80615 z"
           id="path1416" />
        <path
           d="m 150.09161,36.938869 v -3.131582 h 0.95084 v 8.040828 h -0.95084 v -0.868162 q -0.29973,0.516763 -0.75965,0.769977 -0.45475,0.248046 -1.09553,0.248046 -1.04903,0 -1.71049,-0.837156 -0.65628,-0.837155 -0.65628,-2.201409 0,-1.364253 0.65628,-2.201409 0.66146,-0.837155 1.71049,-0.837155 0.64078,0 1.09553,0.253214 0.45992,0.248046 0.75965,0.764808 z m -3.24011,2.020542 q 0,1.049029 0.42892,1.648473 0.43408,0.594277 1.18855,0.594277 0.75447,0 1.18856,-0.594277 0.43408,-0.599444 0.43408,-1.648473 0,-1.049028 -0.43408,-1.643305 -0.43409,-0.599445 -1.18856,-0.599445 -0.75447,0 -1.18855,0.599445 -0.42892,0.594277 -0.42892,1.643305 z"
           id="path1418" />
        <path
           d="m 152.90279,39.564024 v -3.503651 h 0.95085 v 3.467477 q 0,0.821653 0.32039,1.235063 0.32039,0.408243 0.96118,0.408243 0.76998,0 1.21439,-0.490925 0.44959,-0.490924 0.44959,-1.338415 v -3.281443 h 0.95084 v 5.787742 h -0.95084 v -0.888832 q -0.34624,0.527098 -0.80615,0.785479 -0.45476,0.253214 -1.05937,0.253214 -0.99735,0 -1.51411,-0.620115 -0.51677,-0.620116 -0.51677,-1.813837 z m 2.39262,-3.643177 z"
           id="path1420" />
        <path
           d="m 163.87367,36.282581 v 0.888831 q -0.40308,-0.222207 -0.81132,-0.330728 -0.40308,-0.113687 -0.81649,-0.113687 -0.925,0 -1.4366,0.589109 -0.51159,0.583942 -0.51159,1.643305 0,1.059364 0.51159,1.648473 0.5116,0.583942 1.4366,0.583942 0.41341,0 0.81649,-0.10852 0.40824,-0.113688 0.81132,-0.335896 v 0.878497 q -0.39791,0.186034 -0.82682,0.279052 -0.42375,0.09302 -0.90434,0.09302 -1.30741,0 -2.07739,-0.821653 -0.76997,-0.821652 -0.76997,-2.216912 0,-1.415929 0.77514,-2.227247 0.78031,-0.811317 2.13423,-0.811317 0.43925,0 0.85783,0.09302 0.41858,0.08785 0.81132,0.268717 z"
           id="path1422" />
        <path
           d="m 166.46781,34.417067 v 1.643306 h 1.95853 v 0.73897 h -1.95853 v 3.141917 q 0,0.707965 0.19121,0.909503 0.19637,0.201537 0.79064,0.201537 h 0.97668 v 0.795815 h -0.97668 q -1.1007,0 -1.51928,-0.408243 -0.41858,-0.41341 -0.41858,-1.498612 v -3.141917 h -0.69763 v -0.73897 h 0.69763 v -1.643306 z"
           id="path1424" />
        <path
           d="m 173.08238,34.132848 h 1.40559 l 3.42097,6.454366 v -6.454366 h 1.01285 v 7.715267 h -1.40559 l -3.42097,-6.454366 v 6.454366 h -1.01285 z"
           id="path1426" />
        <path
           d="m 183.58816,38.938741 q -1.15238,0 -1.5968,0.263549 -0.44441,0.263549 -0.44441,0.899167 0,0.506427 0.33073,0.80615 0.33589,0.294554 0.9095,0.294554 0.79065,0 1.26607,-0.558103 0.48059,-0.563272 0.48059,-1.493444 v -0.211873 z m 1.89652,-0.39274 v 3.302114 h -0.95084 v -0.878497 q -0.32556,0.527098 -0.81132,0.780312 -0.48576,0.248046 -1.18855,0.248046 -0.88884,0 -1.41593,-0.496092 -0.52193,-0.50126 -0.52193,-1.338416 0,-0.976681 0.65112,-1.472773 0.65629,-0.496092 1.95336,-0.496092 h 1.33325 v -0.09302 q 0,-0.656288 -0.43408,-1.012855 -0.42892,-0.361733 -1.20923,-0.361733 -0.49609,0 -0.96634,0.118855 -0.47026,0.118855 -0.90434,0.356566 v -0.878496 q 0.52193,-0.201538 1.01286,-0.299723 0.49092,-0.103352 0.95601,-0.103352 1.25573,0 1.87585,0.651121 0.62011,0.651121 0.62011,1.974033 z"
           id="path1428" />
        <path
           d="m 191.94938,37.171412 q 0.35657,-0.640785 0.85266,-0.945675 0.49609,-0.30489 1.16788,-0.30489 0.90434,0 1.39526,0.635618 0.49093,0.63045 0.49093,1.798334 v 3.493316 h -0.95601 v -3.46231 q 0,-0.831988 -0.29456,-1.235063 -0.29455,-0.403075 -0.89917,-0.403075 -0.73897,0 -1.16788,0.490925 -0.42891,0.490924 -0.42891,1.338415 v 3.271108 h -0.95601 v -3.46231 q 0,-0.837156 -0.29456,-1.235063 -0.29455,-0.403075 -0.9095,-0.403075 -0.72864,0 -1.15755,0.496092 -0.42891,0.490925 -0.42891,1.333248 v 3.271108 h -0.95601 v -5.787742 h 0.95601 v 0.899167 q 0.32556,-0.532266 0.78031,-0.785479 0.45475,-0.253214 1.08003,-0.253214 0.63045,0 1.0697,0.320393 0.44442,0.320393 0.65629,0.930172 z"
           id="path1430" />
        <path
           d="m 202.70321,38.716533 v 0.465086 h -4.37181 q 0.062,0.981849 0.58911,1.498612 0.53226,0.511595 1.47794,0.511595 0.54777,0 1.05936,-0.134358 0.51676,-0.134358 1.02319,-0.403075 v 0.899167 q -0.51159,0.21704 -1.04903,0.330728 -0.53743,0.113688 -1.09037,0.113688 -1.38492,0 -2.19624,-0.80615 -0.80615,-0.80615 -0.80615,-2.180738 0,-1.421098 0.76481,-2.253086 0.76998,-0.837155 2.07222,-0.837155 1.16788,0 1.84484,0.754473 0.68213,0.749306 0.68213,2.041213 z m -0.95084,-0.279052 q -0.0103,-0.780312 -0.43925,-1.245398 -0.42375,-0.465086 -1.12654,-0.465086 -0.79582,0 -1.27641,0.449583 -0.47542,0.449584 -0.54777,1.266069 z"
           id="path1432" />
        <path
           d="m 210.25828,38.938741 q -1.15238,0 -1.5968,0.263549 -0.44441,0.263549 -0.44441,0.899167 0,0.506427 0.33073,0.80615 0.33589,0.294554 0.9095,0.294554 0.79065,0 1.26607,-0.558103 0.48059,-0.563272 0.48059,-1.493444 v -0.211873 z m 1.89652,-0.39274 v 3.302114 h -0.95084 v -0.878497 q -0.32556,0.527098 -0.81132,0.780312 -0.48576,0.248046 -1.18855,0.248046 -0.88884,0 -1.41593,-0.496092 -0.52193,-0.50126 -0.52193,-1.338416 0,-0.976681 0.65112,-1.472773 0.65629,-0.496092 1.95336,-0.496092 h 1.33325 v -0.09302 q 0,-0.656288 -0.43408,-1.012855 -0.42892,-0.361733 -1.20923,-0.361733 -0.49609,0 -0.96634,0.118855 -0.47026,0.118855 -0.90434,0.356566 v -0.878496 q 0.52193,-0.201538 1.01286,-0.299723 0.49092,-0.103352 0.95601,-0.103352 1.25573,0 1.87585,0.651121 0.62011,0.651121 0.62011,1.974033 z"
           id="path1434" />
        <path
           d="m 218.92439,38.354799 v 3.493316 h -0.95084 v -3.46231 q 0,-0.821653 -0.32039,-1.229895 -0.32039,-0.408243 -0.96118,-0.408243 -0.76998,0 -1.21439,0.490925 -0.44442,0.490924 -0.44442,1.338415 v 3.271108 h -0.95601 v -5.787742 h 0.95601 v 0.899167 q 0.34106,-0.521931 0.80098,-0.780312 0.46509,-0.258381 1.0697,-0.258381 0.99735,0 1.50895,0.620115 0.51159,0.614948 0.51159,1.813837 z"
           id="path1436" />
        <path
           d="m 224.62946,36.938869 v -3.131582 h 0.95084 v 8.040828 h -0.95084 v -0.868162 q -0.29973,0.516763 -0.75965,0.769977 -0.45475,0.248046 -1.09553,0.248046 -1.04903,0 -1.71049,-0.837156 -0.65629,-0.837155 -0.65629,-2.201409 0,-1.364253 0.65629,-2.201409 0.66146,-0.837155 1.71049,-0.837155 0.64078,0 1.09553,0.253214 0.45992,0.248046 0.75965,0.764808 z m -3.24011,2.020542 q 0,1.049029 0.42892,1.648473 0.43408,0.594277 1.18855,0.594277 0.75447,0 1.18855,-0.594277 0.43409,-0.599444 0.43409,-1.648473 0,-1.049028 -0.43409,-1.643305 -0.43408,-0.599445 -1.18855,-0.599445 -0.75447,0 -1.18855,0.599445 -0.42892,0.594277 -0.42892,1.643305 z"
           id="path1438" />
        <path
           d="m 231.98816,34.990674 v 2.899039 h 1.31257 q 0.72864,0 1.12654,-0.377237 0.39791,-0.377237 0.39791,-1.074867 0,-0.692462 -0.39791,-1.069698 -0.3979,-0.377237 -1.12654,-0.377237 z m -1.04387,-0.857826 h 2.35644 q 1.29708,0 1.95853,0.589109 0.66663,0.583942 0.66663,1.715652 0,1.142046 -0.66663,1.725988 -0.66145,0.583942 -1.95853,0.583942 h -1.31257 v 3.100576 h -1.04387 z"
           id="path1440" />
        <path
           d="m 240.45273,36.949205 q -0.1602,-0.09302 -0.3514,-0.134359 -0.18604,-0.04651 -0.41341,-0.04651 -0.80615,0 -1.24023,0.527098 -0.42892,0.52193 -0.42892,1.503779 v 3.0489 h -0.95601 v -5.787742 h 0.95601 v 0.899167 q 0.29973,-0.527098 0.78032,-0.780312 0.48059,-0.258381 1.16788,-0.258381 0.0982,0 0.21704,0.0155 0.11886,0.01034 0.26355,0.03617 z"
           id="path1442" />
        <path
           d="m 241.45008,36.060373 h 0.95084 v 5.787742 h -0.95084 z m 0,-2.253086 h 0.95084 v 1.204057 h -0.95084 z"
           id="path1444" />
        <path
           d="m 248.55556,36.282581 v 0.888831 q -0.40307,-0.222207 -0.81131,-0.330728 -0.40308,-0.113687 -0.81649,-0.113687 -0.925,0 -1.4366,0.589109 -0.51159,0.583942 -0.51159,1.643305 0,1.059364 0.51159,1.648473 0.5116,0.583942 1.4366,0.583942 0.41341,0 0.81649,-0.10852 0.40824,-0.113688 0.81131,-0.335896 v 0.878497 q -0.3979,0.186034 -0.82682,0.279052 -0.42374,0.09302 -0.90433,0.09302 -1.30741,0 -2.07739,-0.821653 -0.76997,-0.821652 -0.76997,-2.216912 0,-1.415929 0.77514,-2.227247 0.78031,-0.811317 2.13423,-0.811317 0.43925,0 0.85783,0.09302 0.41857,0.08785 0.81131,0.268717 z"
           id="path1446" />
        <path
           d="m 255.15979,38.716533 v 0.465086 h -4.37181 q 0.062,0.981849 0.58911,1.498612 0.53226,0.511595 1.47794,0.511595 0.54777,0 1.05936,-0.134358 0.51677,-0.134358 1.02319,-0.403075 v 0.899167 q -0.51159,0.21704 -1.04902,0.330728 -0.53744,0.113688 -1.09037,0.113688 -1.38493,0 -2.19625,-0.80615 -0.80615,-0.80615 -0.80615,-2.180738 0,-1.421098 0.76481,-2.253086 0.76998,-0.837155 2.07222,-0.837155 1.16789,0 1.84484,0.754473 0.68213,0.749306 0.68213,2.041213 z m -0.95084,-0.279052 q -0.0103,-0.780312 -0.43925,-1.245398 -0.42375,-0.465086 -1.12654,-0.465086 -0.79582,0 -1.27641,0.449583 -0.47542,0.449584 -0.54777,1.266069 z"
           id="path1448" />
      </g>
    </g>
  </g>
</svg>
