<?xml version="1.0" encoding="UTF-8" standalone="no"?>
<!-- Created with Inkscape (http://www.inkscape.org/) -->

<svg
   xmlns:dc="http://purl.org/dc/elements/1.1/"
   xmlns:cc="http://creativecommons.org/ns#"
   xmlns:rdf="http://www.w3.org/1999/02/22-rdf-syntax-ns#"
   xmlns:svg="http://www.w3.org/2000/svg"
   xmlns="http://www.w3.org/2000/svg"
   xmlns:sodipodi="http://sodipodi.sourceforge.net/DTD/sodipodi-0.dtd"
   xmlns:inkscape="http://www.inkscape.org/namespaces/inkscape"
   width="210mm"
   height="297mm"
   viewBox="0 0 744.09448819 1052.3622047"
   id="svg2"
   version="1.1"
   inkscape:version="0.91 r13725"
   sodipodi:docname="P.svg">
  <defs
     id="defs4" />
  <sodipodi:namedview
     id="base"
     pagecolor="#ffffff"
     bordercolor="#666666"
     borderopacity="1.0"
     inkscape:pageopacity="0.0"
     inkscape:pageshadow="2"
     inkscape:zoom="0.35"
     inkscape:cx="-129.28571"
     inkscape:cy="291.42857"
     inkscape:document-units="px"
     inkscape:current-layer="layer1"
     showgrid="false"
     inkscape:window-width="1366"
     inkscape:window-height="743"
     inkscape:window-x="0"
     inkscape:window-y="24"
     inkscape:window-maximized="1" />
  <metadata
     id="metadata7">
    <rdf:RDF>
      <cc:Work
         rdf:about="">
        <dc:format>image/svg+xml</dc:format>
        <dc:type
           rdf:resource="http://purl.org/dc/dcmitype/StillImage" />
        <dc:title></dc:title>
      </cc:Work>
    </rdf:RDF>
  </metadata>
  <g
     inkscape:label="Layer 1"
     inkscape:groupmode="layer"
     id="layer1">
    <path
       style="fill:none;stroke:#000000;stroke-width:1px;stroke-linecap:butt;stroke-linejoin:miter;stroke-opacity:1"
       d="m 386.5,996.8622 q 4,26 19,38 15,12 32,12 19,0 34,-14.5 15,-14.5 15,-43.5 -2,-83 -9,-165 -7,-82 -15,-164 l -9,-106 q 1,-17 3,-47 2,-30 2,-62 0,-23.99999 -2,-46.99999 -2,-23 -6.5,-42 -4.5,-19 -12.5,-33 -8,-14 -21,-20 -12,-5 -26.5,-7 -14.5,-2 -28.5,-2 -54,0 -105.5,5 -51.5,5 -108.5,5 -19,0 -37,-1 -18,-1 -35,-5 -20,2 -31,9.5 -11,7.5 -21,24.5 -14,41 -18.5,82.5 -4.5,41.49999 -4.5,83.49999 0,63 3,126 3,63 7.5,126 l 9,126 q 0,0 6.5,126 4,26 19,38 15,12 32,12 19,0 34,-14.5 15,-14.5 15,-43.5 -4,-120 -14,-238.5 -10,-118.5 -10,-239.5 0,-29 1,-58.5 1,-29.5 3,-58.49999 63,0 124,-1.5 61,-1.5 124,-1.5 0,6 0.5,12 0.5,6 0.5,12 0,25.99999 -1.5,51.99999 -1.5,26 -1.5,52 0,9 0.5,17.5 0.5,8.5 0.5,16.5 7,111 19,219.5 12,108.5 14,219.5 z"
       id="path4136"
       inkscape:connector-curvature="0" />
  </g>
</svg>
