<?xml version="1.0" encoding="UTF-8" standalone="no"?>
<svg xmlns="http://www.w3.org/2000/svg" version="1.1" width="360" height="150">
 <metadata id="metadata4403"/>
 <path d="m 30.5,140.5 -20,-130 180,0 140,130" id="path14" fill="none" stroke="#cccccc" stroke-width="4"/>
 <path d="m 333.5,140.49999 c 0,1.65686 -1.34314,3.00001 -3,3.00001 -1.65685,0 -3,-1.34315 -3,-3.00001 0,-1.65685 1.34315,-3 3,-3 1.65686,0 3,1.34315 3,3 z" fill="none" stroke="#000000"/>
 <path d="m 33.5,140.49999 c 0,1.65686 -1.343153,3.00001 -3,3.00001 -1.65686,0 -3,-1.34315 -3,-3.00001 0,-1.65685 1.34314,-3 3,-3 1.656847,0 3,1.34315 3,3 z" fill="none" stroke="#000000"/>
 <path d="m 13.5,10.49999 c 0,1.65686 -1.34315,3.00001 -3,3.00001 -1.65686,0 -3,-1.34315 -3,-3.00001 0,-1.65685 1.34314,-3 3,-3 1.65685,0 3,1.34315 3,3 z" fill="none" stroke="#000000"/>
 <path d="m 193,10.49999 c 0,1.65686 -1.34314,3.00001 -3,3.00001 -1.65685,0 -3,-1.34315 -3,-3.00001 0,-1.65685 1.34315,-3 3,-3 1.65686,0 3,1.34315 3,3 z" fill="none" stroke="#000000"/>
 <path d="M 30.5,140.5 C 25.483738,108.04337 33.017735,83.48342 49,67.5 97.956928,18.539535 225.48231,42.964255 330.5,140.5" fill="none" stroke="#ff0000" stroke-width="4"/>
 <path d="m 25.5,108 30,-97.5 170,32.5" fill="none" stroke="#22ff22" stroke-width="2"/>
 <path d="m 33,83.5 65,-65" fill="none" stroke="#2222ff" stroke-width="2"/>
 <path d="M 52.5,67.499994 C 52.5,69.432994 50.93299,71 48.999997,71 47.066992,71 45.5,69.432994 45.5,67.499994 45.5,65.567006 47.066992,64 48.999997,64 50.93299,64 52.5,65.567006 52.5,67.499994 z"/>
 <path d="M 100.5,18.499996 C 100.5,19.88071 99.380708,21 98,21 96.619283,21 95.5,19.88071 95.5,18.499996 95.5,17.11929 96.619283,16 98,16 c 1.380708,0 2.5,1.11929 2.5,2.499996 z" fill="none" stroke="#2222ff"/>
 <path d="M 35.5,83.499996 C 35.5,84.88071 34.380708,86 33,86 31.619283,86 30.5,84.88071 30.5,83.499996 30.5,82.11929 31.619283,81 33,81 c 1.380708,0 2.5,1.11929 2.5,2.499996 z" fill="none" stroke="#2222ff"/>
 <path d="m 28,108 c 0,1.38071 -1.119292,2.5 -2.5,2.5 -1.380717,0 -2.5,-1.11929 -2.5,-2.5 0,-1.38071 1.119283,-2.5 2.5,-2.5 1.380708,0 2.5,1.11929 2.5,2.5 z" fill="none" stroke="#22ff22"/>
 <path d="M 58,10.5 C 58,11.88071 56.880708,13 55.5,13 54.119283,13 53,11.88071 53,10.5 53,9.11929 54.119283,8 55.5,8 56.880708,8 58,9.11929 58,10.5 z" fill="none" stroke="#22ff22"/>
 <path d="m 228,43 c 0,1.38071 -1.11929,2.5 -2.5,2.5 -1.38072,0 -2.5,-1.11929 -2.5,-2.5 0,-1.38071 1.11928,-2.5 2.5,-2.5 1.38071,0 2.5,1.11929 2.5,2.5 z" fill="none" stroke="#22ff22"/>
 <text font-family="Linux Libertine O" font-size="18">
  <tspan x="38" y="145">P₀</tspan>
  <tspan x="31" y="113">Q₀</tspan>
  <tspan x="56" y="71">B</tspan>
  <tspan x="17" y="15">P₁</tspan>
  <tspan x="62" y="14">Q₁</tspan>
  <tspan x="197" y="16">P₂</tspan>
  <tspan x="41" y="88">R₀</tspan>
  <tspan x="106" y="23">R₁</tspan>
  <tspan x="231" y="48">Q₂</tspan>
  <tspan x="338" y="145">P₃</tspan>
  <tspan x="162.13" y="145.2">t=.25</tspan>
 </text>
</svg>